<svg width="146" height="150" viewBox="0 0 146 150" fill="none" xmlns="http://www.w3.org/2000/svg">
<g opacity="0.2">
<mask id="path-1-inside-1_22_405" fill="white">
<path d="M-4.21306 0.442853C15.4852 0.488081 34.9816 4.41273 53.1631 11.9927C71.3446 19.5727 87.855 30.6595 101.752 44.6203C115.649 58.581 126.66 75.1422 134.156 93.3583C141.652 111.574 145.487 131.089 145.442 150.787C145.397 170.485 141.472 189.982 133.892 208.163C126.312 226.344 115.225 242.855 101.265 256.752C87.304 270.648 70.7428 281.659 52.5267 289.156C34.3106 296.652 14.7964 300.487 -4.90187 300.442L-4.55746 150.442L-4.21306 0.442853Z"/>
</mask>
<path d="M-4.21306 0.442853C15.4852 0.488081 34.9816 4.41273 53.1631 11.9927C71.3446 19.5727 87.855 30.6595 101.752 44.6203C115.649 58.581 126.66 75.1422 134.156 93.3583C141.652 111.574 145.487 131.089 145.442 150.787C145.397 170.485 141.472 189.982 133.892 208.163C126.312 226.344 115.225 242.855 101.265 256.752C87.304 270.648 70.7428 281.659 52.5267 289.156C34.3106 296.652 14.7964 300.487 -4.90187 300.442L-4.55746 150.442L-4.21306 0.442853Z" stroke="#6CDDFB" stroke-width="8" mask="url(#path-1-inside-1_22_405)"/>
</g>
</svg>
