<svg width="151" height="148" viewBox="0 0 151 148" fill="none" xmlns="http://www.w3.org/2000/svg">
<g opacity="0.2">
<mask id="path-1-inside-1_22_290" fill="white">
<path d="M150.098 -152.557C130.4 -152.512 110.903 -148.587 92.7219 -141.007C74.5404 -133.427 58.03 -122.34 44.1332 -108.38C30.2364 -94.419 19.2255 -77.8578 11.7291 -59.6417C4.23271 -41.4256 0.397637 -21.9114 0.442865 -2.21313C0.488093 17.4851 4.41273 36.9815 11.9927 55.163C19.5727 73.3445 30.6595 89.855 44.6203 103.752C58.581 117.648 75.1422 128.659 93.3583 136.156C111.574 143.652 131.089 147.487 150.787 147.442L150.442 -2.55754L150.098 -152.557Z"/>
</mask>
<path d="M150.098 -152.557C130.4 -152.512 110.903 -148.587 92.7219 -141.007C74.5404 -133.427 58.03 -122.34 44.1332 -108.38C30.2364 -94.419 19.2255 -77.8578 11.7291 -59.6417C4.23271 -41.4256 0.397637 -21.9114 0.442865 -2.21313C0.488093 17.4851 4.41273 36.9815 11.9927 55.163C19.5727 73.3445 30.6595 89.855 44.6203 103.752C58.581 117.648 75.1422 128.659 93.3583 136.156C111.574 143.652 131.089 147.487 150.787 147.442L150.442 -2.55754L150.098 -152.557Z" stroke="#6CDDFB" stroke-width="8" mask="url(#path-1-inside-1_22_290)"/>
</g>
</svg>
