<svg width="232" height="76" viewBox="0 0 232 76" fill="none" xmlns="http://www.w3.org/2000/svg">
<rect width="232" height="76" rx="38" fill="white"/>
<path d="M59.2948 19.3617C60.1041 17.3549 62.4085 16.3611 64.2699 17.4647C68.3154 19.8634 71.6604 23.3281 73.9193 27.5139C76.803 32.8572 77.7364 39.0408 76.5588 44.9995C75.3812 50.9583 72.1662 56.3189 67.4677 60.1581C62.7693 63.9973 56.8815 66.0746 50.8187 66.0322C44.7559 65.9898 38.8977 63.8303 34.2532 59.9258C29.6087 56.0213 26.4687 50.6161 25.3743 44.6415C24.2798 38.6669 25.2993 32.4969 28.2572 27.1945C30.5742 23.0408 33.9671 19.6231 38.0457 17.2813C39.9223 16.2038 42.2126 17.2296 42.9938 19.2476V19.2476C43.7736 21.2619 42.7409 23.4951 40.9403 24.6882C38.5262 26.2878 36.5104 28.451 35.0802 31.0149C33.0097 34.7267 32.296 39.0456 33.0622 43.2279C33.8283 47.4101 36.0263 51.1937 39.2774 53.9269C42.5286 56.66 46.6293 58.1717 50.8733 58.2014C55.1172 58.231 59.2387 56.7769 62.5276 54.0895C65.8165 51.4021 68.067 47.6496 68.8913 43.4785C69.7157 39.3074 69.0623 34.9788 67.0437 31.2385C65.6493 28.6548 63.6638 26.4634 61.2721 24.8302C59.4884 23.6122 58.487 21.3649 59.2948 19.3617V19.3617Z" fill="#0972CD"/>
<path d="M50.9421 31.189V18.1821M50.9421 18.1821C49.6901 15.734 47.702 13.7419 45.2586 12.4873L40.3512 9.96722M50.9421 18.1821C52.1919 15.7385 54.201 13.7684 56.6663 12.569L62.0144 9.96722" stroke="#0972CD" stroke-width="4" stroke-linecap="round" stroke-linejoin="round"/>
<ellipse cx="50.9421" cy="40.8353" rx="3.85125" ry="3.85851" fill="#0972CD"/>
<path d="M87.0035 38.0847C87.0035 36.0315 87.4611 34.1975 88.3764 32.5828C89.3115 30.9482 90.575 29.6824 92.1667 28.7853C93.7784 27.8683 95.579 27.4099 97.5687 27.4099C99.8967 27.4099 101.936 28.0079 103.687 29.2039C105.438 30.4 106.662 32.0546 107.358 34.1676H102.553C102.075 33.1709 101.399 32.4234 100.523 31.925C99.6679 31.4266 98.673 31.1775 97.5389 31.1775C96.3252 31.1775 95.2408 31.4665 94.2857 32.0446C93.3506 32.6028 92.6144 33.4001 92.0772 34.4367C91.5599 35.4733 91.3012 36.6893 91.3012 38.0847C91.3012 39.4602 91.5599 40.6762 92.0772 41.7327C92.6144 42.7693 93.3506 43.5767 94.2857 44.1548C95.2408 44.7129 96.3252 44.992 97.5389 44.992C98.673 44.992 99.6679 44.7428 100.523 44.2445C101.399 43.7262 102.075 42.9687 102.553 41.9719H107.358C106.662 44.1049 105.438 45.7695 103.687 46.9655C101.956 48.1417 99.9166 48.7297 97.5687 48.7297C95.579 48.7297 93.7784 48.2812 92.1667 47.3841C90.575 46.4672 89.3115 45.2013 88.3764 43.5866C87.4611 41.972 87.0035 40.138 87.0035 38.0847Z" fill="#0972CD"/>
<path d="M110.882 41.5982C110.882 40.2028 111.156 38.9652 111.703 37.8854C112.267 36.8056 113.021 35.975 113.966 35.3936C114.928 34.8122 115.997 34.5215 117.174 34.5215C118.202 34.5215 119.098 34.7291 119.861 35.1444C120.64 35.5597 121.262 36.083 121.726 36.7142V34.7457H125.233V48.5503H121.726V46.532C121.278 47.1798 120.656 47.7197 119.861 48.1516C119.081 48.5669 118.178 48.7746 117.15 48.7746C115.989 48.7746 114.928 48.4756 113.966 47.8775C113.021 47.2795 112.267 46.4406 111.703 45.3608C111.156 44.2644 110.882 43.0102 110.882 41.5982ZM121.726 41.648C121.726 40.8008 121.56 40.0782 121.228 39.4801C120.897 38.8655 120.449 38.4004 119.885 38.0847C119.322 37.7525 118.716 37.5864 118.07 37.5864C117.423 37.5864 116.826 37.7442 116.279 38.0598C115.732 38.3754 115.284 38.8406 114.936 39.4552C114.604 40.0533 114.439 40.7676 114.439 41.5982C114.439 42.4288 114.604 43.1597 114.936 43.791C115.284 44.4056 115.732 44.8791 116.279 45.2113C116.843 45.5435 117.44 45.7097 118.07 45.7097C118.716 45.7097 119.322 45.5518 119.885 45.2362C120.449 44.904 120.897 44.4388 121.228 43.8408C121.56 43.2262 121.726 42.4952 121.726 41.648Z" fill="#0972CD"/>
<path d="M133.11 36.8887C133.558 36.1577 134.138 35.5846 134.851 35.1693C135.581 34.754 136.41 34.5464 137.338 34.5464V38.2093H136.418C135.324 38.2093 134.495 38.4668 133.931 38.9818C133.384 39.4968 133.11 40.3938 133.11 41.6729V48.5503H129.628V34.7457H133.11V36.8887Z" fill="#0972CD"/>
<path d="M153.487 41.349C153.487 41.8474 153.454 42.2959 153.388 42.6946H143.315C143.398 43.6913 143.746 44.4721 144.359 45.0369C144.973 45.6017 145.727 45.8841 146.623 45.8841C147.916 45.8841 148.836 45.3276 149.383 44.2146H153.139C152.741 45.5435 151.978 46.6399 150.851 47.5038C149.723 48.351 148.339 48.7746 146.697 48.7746C145.371 48.7746 144.177 48.4839 143.116 47.9024C142.071 47.3044 141.25 46.4655 140.654 45.3857C140.073 44.3059 139.783 43.06 139.783 41.648C139.783 40.2194 140.073 38.9652 140.654 37.8854C141.234 36.8056 142.046 35.975 143.091 35.3936C144.136 34.8122 145.338 34.5215 146.697 34.5215C148.007 34.5215 149.176 34.8039 150.204 35.3687C151.249 35.9335 152.053 36.7392 152.617 37.7857C153.197 38.8157 153.487 40.0034 153.487 41.349ZM149.881 40.3523C149.864 39.4552 149.541 38.7409 148.911 38.2093C148.281 37.6611 147.51 37.387 146.598 37.387C145.736 37.387 145.006 37.6528 144.409 38.1844C143.829 38.6994 143.472 39.422 143.34 40.3523H149.881Z" fill="#0972CD"/>
<path d="M173.931 27.679L166.887 41.2842V48.5503H162.709V41.2842L155.636 27.679H160.351L164.828 37.2176L169.275 27.679H173.931Z" fill="#0972CD"/>
<path d="M183.309 48.7746C181.983 48.7746 180.789 48.4839 179.728 47.9024C178.667 47.3044 177.83 46.4655 177.216 45.3857C176.619 44.3059 176.321 43.06 176.321 41.648C176.321 40.236 176.627 38.9901 177.241 37.9103C177.871 36.8305 178.725 35.9999 179.803 35.4185C180.88 34.8205 182.083 34.5215 183.409 34.5215C184.735 34.5215 185.938 34.8205 187.015 35.4185C188.093 35.9999 188.939 36.8305 189.552 37.9103C190.182 38.9901 190.497 40.236 190.497 41.648C190.497 43.06 190.174 44.3059 189.527 45.3857C188.897 46.4655 188.035 47.3044 186.941 47.9024C185.863 48.4839 184.653 48.7746 183.309 48.7746ZM183.309 45.7346C183.94 45.7346 184.528 45.5851 185.075 45.286C185.639 44.9704 186.087 44.5053 186.418 43.8906C186.75 43.276 186.916 42.5285 186.916 41.648C186.916 40.3357 186.568 39.3306 185.871 38.6329C185.191 37.9186 184.354 37.5615 183.359 37.5615C182.364 37.5615 181.527 37.9186 180.847 38.6329C180.184 39.3306 179.852 40.3357 179.852 41.648C179.852 42.9604 180.176 43.9737 180.822 44.688C181.486 45.3857 182.315 45.7346 183.309 45.7346Z" fill="#0972CD"/>
<path d="M207.054 34.7457V48.5503H203.547V46.806C203.099 47.4041 202.511 47.8775 201.781 48.2264C201.068 48.5586 200.289 48.7247 199.443 48.7247C198.366 48.7247 197.412 48.5005 196.583 48.052C195.754 47.5868 195.099 46.914 194.618 46.0336C194.154 45.1365 193.922 44.0734 193.922 42.8441V34.7457H197.404V42.3457C197.404 43.4421 197.677 44.2893 198.225 44.8874C198.772 45.4688 199.518 45.7595 200.463 45.7595C201.425 45.7595 202.179 45.4688 202.726 44.8874C203.273 44.2893 203.547 43.4421 203.547 42.3457V34.7457H207.054Z" fill="#0972CD"/>
</svg>
