<svg width="187" height="62" viewBox="0 0 187 62" fill="none" xmlns="http://www.w3.org/2000/svg">
<path d="M35.2282 12.1652C36.0758 9.97484 38.5896 8.89433 40.5767 10.1463C44.6427 12.7081 48.0058 16.3694 50.2888 20.778C53.2499 26.4963 54.2084 33.1138 52.9991 39.4907C51.7899 45.8675 48.4885 51.6044 43.6639 55.713C38.8392 59.8216 32.7932 62.0447 26.5676 61.9993C20.3419 61.9539 14.3262 59.6429 9.55698 55.4644C4.78771 51.2858 1.56342 45.5014 0.439534 39.1075C-0.684349 32.7137 0.362551 26.1107 3.39989 20.4362C5.74154 16.0613 9.15321 12.4495 13.253 9.94722C15.2574 8.72387 17.7551 9.83915 18.5728 12.0404V12.0404C19.3575 14.1528 18.2827 16.4711 16.4281 17.751C13.9472 19.4631 11.8757 21.7793 10.4062 24.5247C8.28009 28.4969 7.54726 33.119 8.33398 37.5947C9.12069 42.0704 11.3777 46.1195 14.7162 49.0445C18.0547 51.9694 22.2656 53.5872 26.6236 53.6189C30.9816 53.6507 35.2137 52.0945 38.591 49.2185C41.9683 46.3425 44.2792 42.3267 45.1257 37.8629C45.9722 33.3991 45.3012 28.7668 43.2284 24.764C41.7946 21.9952 39.7522 19.6475 37.2918 17.8989C35.4569 16.5949 34.4159 14.2646 35.2282 12.1652V12.1652Z" fill="white"/>
<path d="M26.6943 24.711V10.7914M26.6943 10.7914C25.4086 8.17149 23.3671 6.0396 20.8581 4.69688L15.8188 2M26.6943 10.7914C27.9776 8.17625 30.0407 6.06787 32.5723 4.78437L38.0641 2" stroke="white" stroke-width="4" stroke-linecap="round" stroke-linejoin="round"/>
<ellipse cx="26.6942" cy="35.0342" rx="3.95471" ry="4.12928" fill="white"/>
<path d="M63.7245 32.0906C63.7245 29.8933 64.1944 27.9306 65.1343 26.2026C66.0945 24.4533 67.3919 23.0987 69.0264 22.1387C70.6814 21.1573 72.5304 20.6667 74.5736 20.6667C76.9641 20.6667 79.0583 21.3067 80.8562 22.5867C82.6542 23.8667 83.9107 25.6373 84.6258 27.8986H79.6917C79.2013 26.832 78.5066 26.032 77.6076 25.4986C76.7291 24.9653 75.7075 24.6987 74.5429 24.6987C73.2966 24.6987 72.1831 25.008 71.2024 25.6266C70.2421 26.224 69.4862 27.0773 68.9345 28.1866C68.4033 29.296 68.1377 30.5973 68.1377 32.0906C68.1377 33.5626 68.4033 34.864 68.9345 35.9946C69.4862 37.104 70.2421 37.968 71.2024 38.5866C72.1831 39.184 73.2966 39.4826 74.5429 39.4826C75.7075 39.4826 76.7291 39.216 77.6076 38.6826C78.5066 38.128 79.2013 37.3173 79.6917 36.2506H84.6258C83.9107 38.5333 82.6542 40.3146 80.8562 41.5946C79.0787 42.8533 76.9845 43.4826 74.5736 43.4826C72.5304 43.4826 70.6814 43.0026 69.0264 42.0426C67.3919 41.0613 66.0945 39.7066 65.1343 37.9786C64.1944 36.2506 63.7245 34.288 63.7245 32.0906Z" fill="white"/>
<path d="M88.2446 35.8506C88.2446 34.3573 88.5255 33.0329 89.0874 31.8773C89.6663 30.7218 90.441 29.8329 91.4115 29.2106C92.399 28.5884 93.4972 28.2773 94.706 28.2773C95.7617 28.2773 96.6811 28.4995 97.4643 28.944C98.2645 29.3884 98.903 29.9484 99.3797 30.624V28.5173H102.981V43.2906H99.3797V41.1306C98.92 41.824 98.2815 42.4017 97.4643 42.864C96.6641 43.3084 95.7361 43.5306 94.6805 43.5306C93.4887 43.5306 92.399 43.2106 91.4115 42.5706C90.441 41.9306 89.6663 41.0329 89.0874 39.8773C88.5255 38.704 88.2446 37.3617 88.2446 35.8506ZM99.3797 35.904C99.3797 34.9973 99.2095 34.224 98.8689 33.584C98.5284 32.9262 98.0687 32.4284 97.4898 32.0906C96.9109 31.7351 96.2895 31.5573 95.6255 31.5573C94.9614 31.5573 94.3485 31.7262 93.7866 32.064C93.2248 32.4018 92.7651 32.8995 92.4075 33.5573C92.067 34.1973 91.8967 34.9617 91.8967 35.8506C91.8967 36.7395 92.067 37.5217 92.4075 38.1973C92.7651 38.8551 93.2248 39.3617 93.7866 39.7173C94.3655 40.0729 94.9785 40.2506 95.6255 40.2506C96.2895 40.2506 96.9109 40.0817 97.4898 39.744C98.0687 39.3884 98.5284 38.8906 98.8689 38.2506C99.2095 37.5929 99.3797 36.8106 99.3797 35.904Z" fill="white"/>
<path d="M111.07 30.8106C111.53 30.0284 112.126 29.4151 112.858 28.9706C113.607 28.5262 114.458 28.304 115.412 28.304V32.224H114.467C113.343 32.224 112.492 32.4995 111.913 33.0506C111.351 33.6017 111.07 34.5617 111.07 35.9306V43.2906H107.494V28.5173H111.07V30.8106Z" fill="white"/>
<path d="M131.994 35.584C131.994 36.1173 131.96 36.5973 131.892 37.024H121.549C121.634 38.0906 121.991 38.9262 122.621 39.5306C123.251 40.1351 124.026 40.4373 124.945 40.4373C126.273 40.4373 127.218 39.8417 127.78 38.6506H131.637C131.228 40.0729 130.445 41.2462 129.287 42.1706C128.129 43.0773 126.708 43.5306 125.022 43.5306C123.66 43.5306 122.434 43.2195 121.344 42.5973C120.272 41.9573 119.429 41.0595 118.816 39.904C118.22 38.7484 117.922 37.4151 117.922 35.904C117.922 34.3751 118.22 33.0329 118.816 31.8773C119.412 30.7218 120.246 29.8329 121.319 29.2106C122.391 28.5884 123.626 28.2773 125.022 28.2773C126.367 28.2773 127.567 28.5795 128.623 29.184C129.696 29.7884 130.521 30.6506 131.1 31.7706C131.696 32.8729 131.994 34.144 131.994 35.584ZM128.291 34.5173C128.274 33.5573 127.942 32.7929 127.295 32.224C126.648 31.6373 125.856 31.344 124.92 31.344C124.034 31.344 123.285 31.6284 122.672 32.1973C122.076 32.7484 121.71 33.5217 121.574 34.5173H128.291Z" fill="white"/>
<path d="M152.987 20.9547L145.754 35.5146V43.2906H141.464V35.5146L134.2 20.9547H139.043L143.64 31.1626L148.206 20.9547H152.987Z" fill="white"/>
<path d="M162.618 43.5306C161.256 43.5306 160.03 43.2195 158.94 42.5973C157.85 41.9573 156.991 41.0595 156.361 39.904C155.748 38.7484 155.441 37.4151 155.441 35.904C155.441 34.3929 155.756 33.0595 156.386 31.904C157.033 30.7484 157.91 29.8595 159.017 29.2373C160.123 28.5973 161.358 28.2773 162.72 28.2773C164.082 28.2773 165.316 28.5973 166.423 29.2373C167.53 29.8595 168.398 30.7484 169.028 31.904C169.675 33.0595 169.999 34.3929 169.999 35.904C169.999 37.4151 169.667 38.7484 169.003 39.904C168.356 41.0595 167.47 41.9573 166.347 42.5973C165.24 43.2195 163.997 43.5306 162.618 43.5306ZM162.618 40.2773C163.265 40.2773 163.869 40.1173 164.431 39.7973C165.01 39.4595 165.47 38.9617 165.81 38.304C166.151 37.6462 166.321 36.8462 166.321 35.904C166.321 34.4995 165.963 33.424 165.248 32.6773C164.55 31.9129 163.69 31.5306 162.669 31.5306C161.647 31.5306 160.787 31.9129 160.089 32.6773C159.408 33.424 159.068 34.4995 159.068 35.904C159.068 37.3084 159.4 38.3929 160.064 39.1573C160.745 39.904 161.596 40.2773 162.618 40.2773Z" fill="white"/>
<path d="M187 28.5173V43.2906H183.399V41.424C182.939 42.064 182.335 42.5706 181.586 42.944C180.854 43.2995 180.053 43.4773 179.185 43.4773C178.078 43.4773 177.099 43.2373 176.248 42.7573C175.397 42.2595 174.724 41.5395 174.23 40.5973C173.754 39.6373 173.515 38.4995 173.515 37.184V28.5173H177.091V36.6506C177.091 37.824 177.372 38.7306 177.934 39.3706C178.495 39.9929 179.262 40.304 180.232 40.304C181.22 40.304 181.994 39.9929 182.556 39.3706C183.118 38.7306 183.399 37.824 183.399 36.6506V28.5173H187Z" fill="white"/>
</svg>
