<svg width="102" height="34"  fill="none" xmlns="http://www.w3.org/2000/svg">
<path d="M19.2282 7.38907C19.6856 6.23314 21.0125 5.66166 22.074 6.30868C24.3182 7.67656 26.174 9.6429 27.4302 12.0149C29.0454 15.0646 29.5682 18.594 28.9086 21.995C28.249 25.396 26.4483 28.4556 23.8167 30.6469C21.185 32.8381 17.8872 34.0238 14.4914 33.9996C11.0956 33.9754 7.81432 32.7428 5.2129 30.5143C2.61148 28.2857 0.852773 25.2007 0.239746 21.7906C-0.373281 18.3806 0.197755 14.859 1.85448 11.8326C3.14301 9.47875 5.02552 7.53906 7.28817 6.2033C8.35859 5.57137 9.67718 6.16126 10.1186 7.32326C10.5515 8.46253 9.96937 9.71965 8.95926 10.4015C7.60673 11.3145 6.47737 12.5494 5.67612 14.0131C4.51641 16.1316 4.11669 18.5967 4.5458 20.9838C4.97492 23.3708 6.20602 25.5303 8.02701 27.0903C9.84801 28.6503 12.1449 29.5131 14.522 29.53C16.899 29.547 19.2075 28.717 21.0496 27.1831C22.8918 25.6493 24.1523 23.5075 24.614 21.1268C25.0757 18.7461 24.7098 16.2756 23.5791 14.1407C22.7977 12.6652 21.6848 11.4139 20.3442 10.4816C19.3441 9.78611 18.78 8.52171 19.2282 7.38907Z" fill="#0972CD"/>
<path d="M14.5605 14.1126V6.68873M14.5605 6.68873C13.8592 5.29146 12.7457 4.15446 11.3771 3.43834L8.62842 2M14.5605 6.68873C15.2605 5.294 16.3858 4.16953 17.7667 3.485L20.7622 2" stroke="#0972CD" stroke-width="4" stroke-linecap="round" stroke-linejoin="round"/>
<ellipse cx="14.5606" cy="19.6182" rx="2.15712" ry="2.20228" fill="#0972CD"/>
<path d="M34.7588 18.0484C34.7588 16.8764 35.0151 15.8297 35.5278 14.9081C36.0515 13.9751 36.7592 13.2526 37.6508 12.7406C38.5535 12.2173 39.562 11.9556 40.6765 11.9556C41.9804 11.9556 43.1227 12.2969 44.1034 12.9796C45.0841 13.6622 45.7695 14.6066 46.1595 15.8126H43.4682C43.2007 15.2437 42.8218 14.8171 42.3314 14.5326C41.8522 14.2482 41.295 14.106 40.6598 14.106C39.9799 14.106 39.3726 14.2709 38.8376 14.6009C38.3139 14.9195 37.9015 15.3746 37.6006 15.9662C37.3109 16.5579 37.166 17.2519 37.166 18.0484C37.166 18.8334 37.3109 19.5275 37.6006 20.1305C37.9015 20.7221 38.3139 21.1829 38.8376 21.5129C39.3726 21.8315 39.9799 21.9908 40.6598 21.9908C41.295 21.9908 41.8522 21.8485 42.3314 21.5641C42.8218 21.2683 43.2007 20.8359 43.4682 20.267H46.1595C45.7695 21.4844 45.0841 22.4345 44.1034 23.1172C43.1338 23.7884 41.9915 24.1241 40.6765 24.1241C39.562 24.1241 38.5535 23.8681 37.6508 23.3561C36.7592 22.8327 36.0515 22.1102 35.5278 21.1886C35.0151 20.267 34.7588 19.2203 34.7588 18.0484Z" fill="#0972CD"/>
<path d="M48.1334 20.0537C48.1334 19.2572 48.2866 18.5509 48.5931 17.9346C48.9089 17.3183 49.3314 16.8442 49.8608 16.5124C50.3994 16.1805 50.9984 16.0146 51.6578 16.0146C52.2336 16.0146 52.7351 16.1331 53.1623 16.3701C53.5988 16.6072 53.9471 16.9058 54.2071 17.2661V16.1426H56.1713V24.0217H54.2071V22.8697C53.9564 23.2395 53.6081 23.5476 53.1623 23.7941C52.7258 24.0312 52.2197 24.1497 51.6439 24.1497C50.9938 24.1497 50.3994 23.979 49.8608 23.6377C49.3314 23.2964 48.9089 22.8175 48.5931 22.2012C48.2866 21.5755 48.1334 20.8596 48.1334 20.0537ZM54.2071 20.0821C54.2071 19.5986 54.1142 19.1861 53.9285 18.8448C53.7428 18.494 53.492 18.2285 53.1762 18.0484C52.8605 17.8587 52.5215 17.7639 52.1593 17.7639C51.7971 17.7639 51.4628 17.854 51.1563 18.0341C50.8498 18.2143 50.5991 18.4798 50.4041 18.8306C50.2183 19.1719 50.1255 19.5796 50.1255 20.0537C50.1255 20.5278 50.2183 20.9449 50.4041 21.3052C50.5991 21.6561 50.8498 21.9263 51.1563 22.1159C51.4721 22.3055 51.8064 22.4004 52.1593 22.4004C52.5215 22.4004 52.8605 22.3103 53.1762 22.1301C53.492 21.9405 53.7428 21.675 53.9285 21.3337C54.1142 20.9829 54.2071 20.5657 54.2071 20.0821Z" fill="#0972CD"/>
<path d="M60.5836 17.3657C60.8343 16.9485 61.1594 16.6214 61.5587 16.3844C61.9673 16.1473 62.4317 16.0288 62.9518 16.0288V18.1195H62.4363C61.8234 18.1195 61.359 18.2664 61.0433 18.5604C60.7368 18.8543 60.5836 19.3663 60.5836 20.0964V24.0217H58.6333V16.1426H60.5836V17.3657Z" fill="#0972CD"/>
<path d="M71.9968 19.9115C71.9968 20.1959 71.9782 20.4519 71.9411 20.6795H66.2992C66.3457 21.2484 66.5407 21.694 66.8843 22.0164C67.2279 22.3387 67.6505 22.4999 68.152 22.4999C68.8764 22.4999 69.3918 22.1823 69.6983 21.547H71.8018C71.5789 22.3055 71.1517 22.9313 70.5202 23.4244C69.8887 23.9079 69.1132 24.1497 68.1938 24.1497C67.4508 24.1497 66.7822 23.9838 66.1878 23.6519C65.6027 23.3106 65.143 22.8318 64.8087 22.2155C64.4836 21.5992 64.3211 20.8881 64.3211 20.0821C64.3211 19.2667 64.4836 18.5509 64.8087 17.9346C65.1337 17.3183 65.5888 16.8442 66.1739 16.5124C66.7589 16.1805 67.4322 16.0146 68.1938 16.0146C68.9275 16.0146 69.5822 16.1758 70.158 16.4981C70.7431 16.8205 71.1935 17.2804 71.5092 17.8777C71.8343 18.4655 71.9968 19.1435 71.9968 19.9115ZM69.9769 19.3426C69.9676 18.8306 69.7865 18.4229 69.4336 18.1195C69.0807 17.8066 68.6488 17.6501 68.1381 17.6501C67.6551 17.6501 67.2465 17.8018 66.9122 18.1052C66.5871 18.3992 66.3875 18.8116 66.3132 19.3426H69.9769Z" fill="#0972CD"/>
<path d="M83.4475 12.1092L79.5024 19.8745V24.0217H77.1621V19.8745L73.2002 12.1092H75.8415L78.349 17.5534L80.8397 12.1092H83.4475Z" fill="#0972CD"/>
<path d="M88.7006 24.1497C87.9576 24.1497 87.289 23.9838 86.6946 23.6519C86.1002 23.3106 85.6312 22.8318 85.2876 22.2155C84.9533 21.5992 84.7861 20.8881 84.7861 20.0821C84.7861 19.2762 84.9579 18.5651 85.3016 17.9488C85.6545 17.3325 86.1327 16.8584 86.7364 16.5266C87.34 16.1853 88.0134 16.0146 88.7563 16.0146C89.4993 16.0146 90.1726 16.1853 90.7762 16.5266C91.3799 16.8584 91.8535 17.3325 92.1972 17.9488C92.5501 18.5651 92.7265 19.2762 92.7265 20.0821C92.7265 20.8881 92.5454 21.5992 92.1832 22.2155C91.8303 22.8318 91.3474 23.3106 90.7345 23.6519C90.1308 23.9838 89.4528 24.1497 88.7006 24.1497ZM88.7006 22.4146C89.0535 22.4146 89.3832 22.3292 89.6897 22.1586C90.0054 21.9784 90.2562 21.7129 90.4419 21.3621C90.6277 21.0113 90.7205 20.5847 90.7205 20.0821C90.7205 19.3331 90.5255 18.7595 90.1354 18.3612C89.7547 17.9535 89.2857 17.7497 88.7285 17.7497C88.1712 17.7497 87.7022 17.9535 87.3215 18.3612C86.95 18.7595 86.7643 19.3331 86.7643 20.0821C86.7643 20.8312 86.9454 21.4095 87.3075 21.8172C87.679 22.2155 88.1434 22.4146 88.7006 22.4146Z" fill="#0972CD"/>
<path d="M102 16.1426V24.0217H100.036V23.0261C99.785 23.3675 99.4554 23.6377 99.0467 23.8368C98.6474 24.0264 98.2109 24.1212 97.7373 24.1212C97.1336 24.1212 96.5996 23.9932 96.1353 23.7372C95.6709 23.4718 95.3041 23.0878 95.0347 22.5852C94.7747 22.0732 94.6447 21.4664 94.6447 20.7648V16.1426H96.595V20.4804C96.595 21.1061 96.7482 21.5897 97.0547 21.931C97.3611 22.2629 97.7791 22.4288 98.3084 22.4288C98.8471 22.4288 99.2696 22.2629 99.5761 21.931C99.8826 21.5897 100.036 21.1061 100.036 20.4804V16.1426H102Z" fill="#0972CD"/>
</svg>
