<svg width="49" height="48" viewBox="0 0 49 48" fill="none" xmlns="http://www.w3.org/2000/svg">
<path d="M34.1893 35.6811C33.3061 35.215 31.1323 33.9816 30.1916 33.0973V30.6958C33.2025 28.972 35.2576 25.8886 35.9092 22.1185C37.6144 21.6295 39.0984 20.0291 39.0984 18.5572C39.0984 17.0676 37.9792 16.0791 36.1292 15.874V14.1424C36.1918 13.5169 36.6978 7.41019 33.1007 3.39141C31.0865 1.14112 28.1928 0 24.5 0C20.8068 0 17.9129 1.14122 15.8985 3.39178C12.3016 7.41075 12.8081 13.5173 12.8707 14.1425V15.8739C11.0207 16.079 9.90149 17.0675 9.90149 18.5571C9.90149 20.0296 11.3867 21.6308 13.0908 22.1188C13.7425 25.8894 15.7975 28.9726 18.8083 30.6959V33.0974C17.8672 33.9822 15.6912 35.2165 14.8089 35.682C5.16712 38.8135 4.95759 44.5269 4.95346 44.7692L4.95337 48H44.0466V44.7783C44.0453 44.5345 43.9072 38.783 34.1893 35.6811ZM36.1291 17.3688C37.45 17.5545 37.6114 18.2377 37.6114 18.5572C37.6114 19.163 36.9565 19.9877 36.1012 20.4442C36.1187 20.1462 36.1291 17.3688 36.1291 17.3688ZM11.3886 18.5572C11.3886 18.2377 11.55 17.5544 12.8707 17.3688C12.8707 17.3688 12.8812 20.1465 12.8987 20.4446C12.044 19.9883 11.3886 19.1633 11.3886 18.5572ZM17.0121 4.37756C18.732 2.45963 21.2513 1.48716 24.5 1.48716C27.7482 1.48716 30.2673 2.45953 31.9873 4.37728C34.6042 7.29516 34.7402 11.6786 34.6866 13.3456C28.8653 13.113 24.4801 10.0647 24.4353 10.0332L23.2616 9.20109V10.6397C23.2616 11.2383 22.0589 12.1076 18.6835 12.7523C16.9799 13.0777 15.2567 13.2407 14.3123 13.3126C14.2616 11.6208 14.4126 7.27612 17.0121 4.37756ZM14.4828 21.3985C14.3999 20.7946 14.3579 20.1714 14.3579 19.5466V14.8014C15.3188 14.7306 17.1224 14.5636 18.949 14.2157C21.8959 13.6543 23.6992 12.85 24.4058 11.7739C26.0215 12.7283 29.8375 14.6487 34.6421 14.833V19.5466C34.6421 20.1714 34.6001 20.7945 34.5172 21.399C34.0136 25.0872 32.0414 28.0748 29.1061 29.5956C27.72 30.3139 26.1703 30.6781 24.5002 30.6781C22.83 30.6781 21.2801 30.3139 19.8939 29.5956C16.9585 28.0753 14.9863 25.0878 14.4828 21.3985ZM28.7046 31.4038V33.1147C28.1959 33.6458 26.5863 35.1315 24.5 35.1315C22.4272 35.1315 20.8064 33.6429 20.2954 33.1133V31.4038C21.602 31.9088 23.0109 32.1652 24.5 32.1652C25.9889 32.1652 27.3979 31.9087 28.7046 31.4038ZM42.5595 46.5129H6.44043V44.7911C6.44653 44.6351 6.72431 39.8498 15.3265 37.0775C15.3265 37.0775 18.1407 35.6035 19.5261 34.4452C20.2885 35.1624 21.7963 36.3247 23.7563 36.571V45.2766H25.2435V36.571C27.2036 36.3247 28.7113 35.1624 29.4737 34.4452C30.8592 35.6035 33.677 37.0786 33.677 37.0786C36.197 37.8767 39.5886 39.38 41.4358 42.0098C42.4966 43.52 42.5571 44.7279 42.5594 44.7894V46.5129H42.5595Z" fill="#0661B0"/>
<path d="M23.2637 19.7953H25.7354V22.2689H33.16V15.8337H25.7354V18.3083H23.2637V15.8337H15.8391V22.2689H23.2637V19.7953ZM27.2224 17.3208H31.6728V20.7818H27.2224V17.3208ZM21.7766 20.7819H17.3262V17.3209H21.7766V20.7819Z" fill="#0661B0"/>
<path d="M25.2435 23.0105H23.7565V26.2276H26.4789V24.7406H25.2435V23.0105Z" fill="#0661B0"/>
<path d="M37.8601 42.0596H29.9427V43.5466H37.8601V42.0596Z" fill="#0661B0"/>
<path d="M22.5201 37.6062H20.5413V39.0934H22.5201V37.6062Z" fill="#0661B0"/>
<path d="M22.5201 40.5745H20.5413V42.0616H22.5201V40.5745Z" fill="#0661B0"/>
<path d="M22.5201 43.5437H20.5413V45.0309H22.5201V43.5437Z" fill="#0661B0"/>
</svg>
