<svg width="49" height="48" viewBox="0 0 49 48" fill="none" xmlns="http://www.w3.org/2000/svg">
<g clip-path="url(#clip0_35_173)">
<path d="M15.8595 32.7258C13.5098 32.7258 11.6049 34.6307 11.6049 36.9805H30.8437V32.7258H15.8595Z" fill="#FDFDFD"/>
<path opacity="0.15" d="M12.1754 34.8531C11.8132 35.4791 11.6049 36.2052 11.6049 36.9805H30.8437V34.8531H12.1754Z" fill="#FDFDFD"/>
<path d="M39.6376 41.2351H9.24256C7.47527 41.2351 6.04248 42.6678 6.04248 44.4352V47.2682H42.8376V44.4352C42.8376 42.6678 41.4049 41.2351 39.6376 41.2351Z" fill="#FDFDFD"/>
<path d="M38.1506 37.1435C41.0691 34.9295 42.9576 31.4254 42.9576 27.488C42.9576 21.5192 38.6182 16.5454 32.9288 15.5542L28.2666 18.5041L28.8429 22.0141C29.4672 21.7852 30.141 21.6602 30.8436 21.6602C34.057 21.6602 36.6713 24.2745 36.6713 27.4879C36.6713 30.0053 35.0667 32.1547 32.8267 32.9679L34.5108 36.4082L38.1506 37.1435Z" fill="#FDFDFD"/>
<path opacity="0.15" d="M28.2666 18.504L28.8429 22.014C29.4672 21.7851 30.141 21.6601 30.8436 21.6601C31.018 21.6601 31.1903 21.6692 31.3609 21.6843L34.9079 16.0765C34.2708 15.8489 33.6096 15.6727 32.9288 15.5541L28.2666 18.504Z" fill="#FDFDFD"/>
<path d="M16.1969 24.364L25.6742 30.3593L27.2193 27.9167L17.742 21.9215L16.1969 24.364Z" fill="#FDFDFD"/>
<path d="M31.7111 3.17642L38.1726 7.26392L39.7177 4.82138L33.2562 0.733882L31.7111 3.17642Z" fill="#FDFDFD"/>
<path d="M31.9989 6.73889L34.8296 8.52954L36.3571 6.11482L33.5264 4.32417L31.9989 6.73889Z" fill="#FDFDFD"/>
<path opacity="0.15" d="M32.7944 5.48218L35.6251 7.27283L36.3571 6.1157L33.5264 4.32505L32.7944 5.48218Z" fill="#FDFDFD"/>
<path opacity="0.15" d="M34.9365 31.6309C34.3433 32.217 33.6257 32.6777 32.8268 32.9678L34.5108 36.4082L38.1506 37.1434C38.6832 36.7393 39.1811 36.2918 39.6398 35.807C38.5438 33.9399 36.8891 32.486 34.9365 31.6309Z" fill="#FDFDFD"/>
<path d="M38.6629 38.3423C37.532 34.9861 34.3854 32.7258 30.8437 32.7258C27.302 32.7258 24.1553 34.9861 23.0244 38.3423L22.0497 41.2351H39.6377L38.6629 38.3423Z" fill="#FDFDFD"/>
<path d="M30.8439 38.6008C31.7386 38.6008 32.4638 37.8755 32.4638 36.9809C32.4638 36.0862 31.7386 35.361 30.8439 35.361C29.9493 35.361 29.224 36.0862 29.224 36.9809C29.224 37.8755 29.9493 38.6008 30.8439 38.6008Z" fill="#FDFDFD"/>
<path d="M19.2499 22.875L25.7114 26.9625L36.6455 9.67781L30.184 5.59031L19.2499 22.875Z" fill="#FDFDFD"/>
<path d="M30.1846 5.58936L19.2515 22.875L36.6465 9.67659L30.1846 5.58936Z" fill="#FDFDFD"/>
<path opacity="0.15" d="M6.04826 44.2517C6.04479 44.3125 6.04272 44.3736 6.04272 44.4353V47.2683H42.8379V44.4353C42.8379 44.3736 42.8357 44.3125 42.8323 44.2517H6.04826Z" fill="#FDFDFD"/>
<path d="M40.1761 40.541L39.3566 38.1086C39.2694 37.8501 39.1702 37.5984 39.0619 37.3522C42.01 34.8989 43.6895 31.3374 43.6895 27.488C43.6895 24.4492 42.6045 21.499 40.6345 19.1806C38.922 17.1654 36.6332 15.7287 34.1055 15.0631L37.2651 10.0678C37.3689 9.90372 37.4032 9.70516 37.3606 9.51578C37.318 9.32641 37.2019 9.16169 37.0378 9.0579L35.8409 8.30087L36.5858 7.12327L37.7827 7.8804C37.9041 7.95709 38.0395 7.99384 38.1731 7.99384C38.4158 7.99384 38.6531 7.87337 38.7925 7.65306L40.3375 5.2103C40.4412 5.04623 40.4756 4.84767 40.433 4.65829C40.3904 4.46892 40.2743 4.3042 40.1102 4.20042L33.6483 0.113276C33.3067 -0.102444 32.8546 -0.00100599 32.6385 0.34062L31.0935 2.78338C30.9897 2.94744 30.9554 3.14601 30.998 3.33538C31.0406 3.52476 31.1567 3.68948 31.3207 3.79326L32.5177 4.55029L31.7728 5.72789L30.5759 4.97076C30.2344 4.75495 29.7821 4.85648 29.5661 5.19811L19.0243 21.865L18.135 21.3026C17.971 21.199 17.7724 21.1645 17.5829 21.2072C17.3936 21.2499 17.2288 21.3658 17.1251 21.53L15.5801 23.9728C15.364 24.3145 15.4657 24.7665 15.8073 24.9826L25.2847 30.9771C25.4061 31.0538 25.5415 31.0906 25.6752 31.0906C25.9178 31.0906 26.1551 30.97 26.2945 30.7498L27.8395 28.307C28.0556 27.9654 27.9539 27.5133 27.6123 27.2972L26.723 26.7348L29.3231 22.6242C29.8134 22.4705 30.3237 22.3924 30.8436 22.3924C33.6534 22.3924 35.9394 24.6783 35.9394 27.4882C35.9394 29.5542 34.6753 31.4234 32.7726 32.2044C32.148 32.0674 31.5024 31.9941 30.8436 31.9941H15.8596C13.1101 31.9941 10.873 34.2311 10.873 36.9808C10.873 37.385 11.2007 37.7127 11.6049 37.7127H22.4758C22.4249 37.8433 22.376 37.975 22.3308 38.1089L21.524 40.5034H9.24262C7.07455 40.5034 5.31055 42.2673 5.31055 44.4354V47.2683C5.31055 47.6726 5.6382 48.0002 6.04246 48.0002H42.8377C43.2419 48.0002 43.5696 47.6726 43.5696 47.2683V44.4353C43.5697 42.4497 42.0903 40.8044 40.1761 40.541ZM33.4844 1.74172L38.7091 5.04633L37.9466 6.25196L36.7501 5.49511C36.75 5.49502 36.7498 5.49492 36.7497 5.49483L33.9189 3.70429C33.9188 3.7042 33.9185 3.70401 33.9183 3.70392L32.722 2.94726L33.4844 1.74172ZM35.3485 6.34074L34.6038 7.51834L33.0101 6.51033L33.7549 5.33273L35.3485 6.34074ZM25.4488 29.3487L17.2085 24.1367L17.971 22.931L18.8592 23.4928C18.8594 23.493 18.8597 23.4933 18.8602 23.4935L25.322 27.5806L25.3221 27.5807L26.2112 28.143L25.4488 29.3487ZM25.486 25.9522L25.3117 25.8419L20.2614 22.6475L30.4119 6.5993L31.6084 7.35605C31.6086 7.35615 31.6086 7.35624 31.6088 7.35634L34.4396 9.14687C34.4398 9.14697 34.44 9.14706 34.4402 9.14716L35.6365 9.90381L32.3104 15.1626C32.3103 15.1627 32.3103 15.1628 32.3102 15.1628L30.0152 18.7914L25.486 25.9522ZM37.4034 27.488C37.4034 23.871 34.4607 20.9283 30.8436 20.9283C30.6904 20.9283 30.5376 20.9335 30.3858 20.9441L33.2561 16.406L33.2796 16.3689C35.6979 16.8993 37.8988 18.222 39.519 20.1285C41.2645 22.1824 42.2256 24.7961 42.2256 27.488C42.2256 30.7999 40.8224 33.8725 38.3482 36.0387C38.3394 36.0254 38.3301 36.0125 38.3212 35.9991C38.2779 35.934 38.2339 35.8695 38.189 35.8057C38.1744 35.7849 38.1594 35.7643 38.1446 35.7437C38.095 35.6745 38.0448 35.6059 37.9934 35.5382C37.9856 35.528 37.9777 35.5179 37.9699 35.5078C37.0885 34.3589 35.9444 33.4426 34.6397 32.8344C36.3403 31.622 37.4034 29.6378 37.4034 27.488ZM29.5987 33.5618C31.3617 33.2673 33.2202 33.6227 34.7483 34.551C36.2481 35.4621 37.4091 36.913 37.9694 38.576L38.6188 40.5031H23.0687L23.7182 38.576C23.8641 38.1427 24.0481 37.7305 24.2631 37.3405C24.2642 37.3385 24.2657 37.337 24.2667 37.335C25.3733 35.3352 27.3169 33.9696 29.522 33.5756C29.5476 33.571 29.573 33.5661 29.5987 33.5618ZM12.4133 36.2485C12.751 34.6561 14.1679 33.4578 15.8594 33.4578H25.9272C24.8364 34.171 23.9035 35.1199 23.2056 36.2485H12.4133ZM42.1058 46.5362H6.77455V44.4352C6.77455 43.0742 7.88174 41.9671 9.24272 41.9671H22.0498H39.6378C40.9987 41.9671 42.1059 43.0742 42.1059 44.4352V46.5362H42.1058Z" fill="#0661B0"/>
<path d="M30.8436 39.3323C32.1405 39.3323 33.1955 38.2771 33.1955 36.9804C33.1955 35.6836 32.1405 34.6285 30.8436 34.6285C29.5468 34.6285 28.4918 35.6835 28.4918 36.9804C28.4918 38.2771 29.5469 39.3323 30.8436 39.3323ZM30.8436 36.0925C31.3333 36.0925 31.7316 36.4908 31.7316 36.9805C31.7316 37.4702 31.3333 37.8686 30.8436 37.8686C30.354 37.8686 29.9556 37.4702 29.9556 36.9805C29.9557 36.4908 30.3541 36.0925 30.8436 36.0925Z" fill="#0661B0"/>
</g>
<defs>
<clipPath id="clip0_35_173">
<rect width="48" height="48" fill="white" transform="translate(0.5)"/>
</clipPath>
</defs>
</svg>
