<svg width="41" height="40" viewBox="0 0 41 40" fill="none" xmlns="http://www.w3.org/2000/svg">
<g clip-path="url(#clip0_35_300)">
<path d="M37.3616 39.3616L39.8575 36.8658C40.187 36.5363 40.187 36.0091 39.8575 35.6796L27.5675 23.3896L23.8855 27.0717L36.1754 39.3616C36.5049 39.6911 37.0321 39.6911 37.3616 39.3616Z" fill="white"/>
<path d="M13.9597 5.52307C9.57746 5.52307 6.01074 9.08979 6.01074 13.472C6.01074 13.8839 6.34847 14.2216 6.76033 14.2216C7.17219 14.2216 7.50992 13.8839 7.50992 13.472C7.50992 9.91352 10.4012 7.02225 13.9597 7.02225C14.3715 7.02225 14.7093 6.68452 14.7093 6.27266C14.7093 5.85256 14.3715 5.52307 13.9597 5.52307Z" fill="#1C63B3"/>
<path d="M28.0947 22.8625C27.8064 22.5742 27.3287 22.5742 27.0404 22.8625L25.7306 24.1722L23.9926 22.4341C26.126 20.0536 27.4275 16.907 27.4275 13.4638C27.4275 6.04204 21.3896 0.00415039 13.9679 0.00415039C6.54613 0.00415039 0.5 6.04204 0.5 13.4638C0.5 20.8855 6.53789 26.9234 13.9596 26.9234C17.4028 26.9234 20.5412 25.6219 22.93 23.4885L24.668 25.2266L23.3583 26.5363C23.2183 26.6763 23.1359 26.8658 23.1359 27.0635C23.1359 27.2612 23.2183 27.4506 23.3583 27.5906L35.047 39.2793C35.5082 39.7406 36.1178 39.9959 36.7685 39.9959C37.4193 39.9959 38.0288 39.7406 38.4901 39.2793L39.7834 37.986C40.2446 37.5247 40.5 36.9152 40.5 36.2644C40.5 35.6137 40.2446 35.0042 39.7834 34.5429L28.0947 22.8625ZM1.99918 13.4638C1.99918 6.86576 7.36985 1.49509 13.9679 1.49509C20.5659 1.49509 25.9366 6.86576 25.9366 13.4638C25.9366 20.0618 20.5659 25.4325 13.9679 25.4325C7.36985 25.4325 1.99918 20.0618 1.99918 13.4638ZM38.729 36.9399L37.4357 38.2331C37.2545 38.4144 37.0239 38.5132 36.7685 38.5132C36.5132 38.5132 36.2825 38.4144 36.1013 38.2331L24.9399 27.0717L27.5675 24.444L38.729 35.6055C38.9102 35.7867 39.0091 36.0173 39.0091 36.2727C39.0091 36.528 38.902 36.7669 38.729 36.9399Z" fill="#1C63B3"/>
</g>
<defs>
<clipPath id="clip0_35_300">
<rect width="40" height="40" fill="white" transform="translate(0.5)"/>
</clipPath>
</defs>
</svg>
