<svg width="34" height="33" viewBox="0 0 34 33" fill="none" xmlns="http://www.w3.org/2000/svg">
<g clip-path="url(#clip0_1005_7650)" filter="url(#filter0_d_1005_7650)">
<path d="M15.4833 20.5819C15.8011 20.3901 16.1989 20.3901 16.5167 20.5819L20.151 22.7754C20.9083 23.2325 21.8425 22.5535 21.6416 21.692L20.6771 17.5578C20.5928 17.1963 20.7156 16.8178 20.9962 16.5748L24.2086 13.7919C24.8772 13.2127 24.5198 12.1144 23.6384 12.0396L19.4109 11.681C19.0413 11.6496 18.7194 11.4163 18.5747 11.0748L16.9207 7.17237C16.5761 6.35934 15.4239 6.35934 15.0793 7.17237L13.4253 11.0748C13.2806 11.4163 12.9587 11.6496 12.5891 11.681L8.36163 12.0396C7.4802 12.1144 7.1228 13.2127 7.79139 13.7919L11.0038 16.5748C11.2844 16.8178 11.4072 17.1963 11.3229 17.5578L10.3584 21.692C10.1575 22.5535 11.0917 23.2325 11.849 22.7754L15.4833 20.5819Z" fill="white"/>
</g>
<defs>
<filter id="filter0_d_1005_7650" x="-3" y="-3" width="40" height="40" filterUnits="userSpaceOnUse" color-interpolation-filters="sRGB">
<feFlood flood-opacity="0" result="BackgroundImageFix"/>
<feColorMatrix in="SourceAlpha" type="matrix" values="0 0 0 0 0 0 0 0 0 0 0 0 0 0 0 0 0 0 127 0" result="hardAlpha"/>
<feOffset dx="1" dy="2"/>
<feGaussianBlur stdDeviation="4"/>
<feComposite in2="hardAlpha" operator="out"/>
<feColorMatrix type="matrix" values="0 0 0 0 0 0 0 0 0 0 0 0 0 0 0 0 0 0 0.1 0"/>
<feBlend mode="normal" in2="BackgroundImageFix" result="effect1_dropShadow_1005_7650"/>
<feBlend mode="normal" in="SourceGraphic" in2="effect1_dropShadow_1005_7650" result="shape"/>
</filter>
<clipPath id="clip0_1005_7650">
<rect width="24" height="24" fill="white" transform="translate(4 3)"/>
</clipPath>
</defs>
</svg>
