<svg width="200" height="167" fill="none" xmlns="http://www.w3.org/2000/svg">
<g clip-path="url(#clip0_69_1880)">
<path d="M89.0086 31.7353C88.9698 31.7353 88.9311 31.7339 88.8921 31.7314C86.3266 31.566 77.548 30.3199 72.3052 21.2232C71.9179 20.5518 71.9944 19.6974 72.4957 19.0978H72.4958C76.8742 15.5246 80.2941 11.6573 82.3129 7.36028C82.6775 6.92433 83.2245 6.68603 83.7782 6.69585C84.3467 6.70934 84.8705 6.97795 85.2156 7.43282C87.7046 10.715 92.6188 16.5253 97.5634 18.5624C98.1192 18.7915 98.5215 19.2566 98.6673 19.839C98.812 20.4165 98.6781 21.0119 98.3001 21.4724L90.4355 31.0554C90.0819 31.4865 89.5553 31.7353 89.0086 31.7353V31.7353Z" fill="#E6E6E6"/>
<path d="M73.9818 19.5598L74.1187 19.6751C73.9848 19.8356 73.9603 20.0644 74.0579 20.2452C78.8008 29.0093 87.2804 29.6969 88.932 29.7456C89.0911 29.7547 89.2402 29.6828 89.3411 29.5598L97.1493 20.0458C97.2598 19.9109 97.2938 19.7388 97.243 19.5727C97.1917 19.4059 97.0656 19.2815 96.897 19.2325C91.5939 17.6772 86.0298 10.4736 84.4508 8.30267C84.3585 8.17581 84.2158 8.09977 84.0597 8.09451C83.8992 8.09294 83.7531 8.15619 83.651 8.27814C81.3916 12.6987 78.2283 16.5072 74.1187 19.6751L73.9818 19.5598Z" fill="white"/>
<path d="M78.0507 21.7279L85.1284 14.4862C85.6122 13.9912 84.8543 13.2293 84.3698 13.7249L77.2921 20.9667C76.8083 21.4617 77.5662 22.2236 78.0507 21.7279Z" fill="#E6E6E6"/>
<path d="M82.3225 23.7681C84.2759 22.0112 85.9733 19.9769 87.3633 17.7447C87.7302 17.1555 86.8024 16.6145 86.437 17.2014C85.0932 19.3594 83.4522 21.3085 81.5639 23.0069C81.0487 23.4702 81.8095 24.2295 82.3225 23.7681H82.3225H82.3225Z" fill="#E6E6E6"/>
<path d="M86.1726 26.211C87.9511 24.2341 89.465 22.0277 90.6568 19.6476C90.966 19.0302 90.0409 18.4845 89.7305 19.1043C88.579 21.4038 87.1327 23.5393 85.414 25.4498C84.9524 25.9629 85.7088 26.7266 86.1726 26.211Z" fill="#E6E6E6"/>
<path d="M95.4454 34.6061C95.4066 34.6061 95.3678 34.6047 95.3289 34.6023C92.7634 34.4369 83.9847 33.1907 78.7419 24.0941C78.3547 23.4226 78.4311 22.5683 78.9324 21.9687H78.9326C83.0922 18.3483 86.2238 14.3894 88.7496 10.2311C89.1142 9.79518 89.6613 9.55688 90.215 9.5667C90.7835 9.58019 91.3073 9.8488 91.6523 10.3037C94.1414 13.5859 99.0556 19.3961 104 21.4332C104.556 21.6624 104.958 22.1274 105.104 22.7098C105.249 23.2874 105.115 23.8828 104.737 24.3432L96.8723 33.9263C96.5187 34.3573 95.9921 34.6061 95.4454 34.6061V34.6061Z" fill="#E6E6E6"/>
<path d="M80.4186 22.4306L80.5555 22.5459C80.4215 22.7064 80.3971 22.9352 80.4947 23.1161C85.2376 31.8802 93.7171 32.5677 95.3688 32.6164C95.5278 32.6255 95.677 32.5537 95.7779 32.4307L103.586 22.9167C103.697 22.7818 103.731 22.6097 103.68 22.4436C103.628 22.2768 103.502 22.1524 103.334 22.1033C98.0307 20.5481 92.4666 13.3445 90.8876 11.1735C90.7952 11.0467 90.6526 10.9706 90.4965 10.9654C90.336 10.9638 90.1899 11.027 90.0877 11.149C87.3812 15.662 84.3366 19.6624 80.5555 22.5459L80.4186 22.4306Z" fill="white"/>
<path d="M84.4874 24.5988L91.5652 17.357C92.049 16.862 91.291 16.1001 90.8066 16.5958L83.7289 23.8376C83.245 24.3326 84.003 25.0944 84.4874 24.5988Z" fill="#E6E6E6"/>
<path d="M88.7593 26.6389C90.7126 24.882 92.4101 22.8477 93.8001 20.6156C94.167 20.0263 93.2392 19.4853 92.8737 20.0722C91.5299 22.2303 89.8889 24.1794 88.0007 25.8777C87.4855 26.3411 88.2463 27.1004 88.7593 26.6389H88.7593H88.7593Z" fill="#E6E6E6"/>
<path d="M92.6093 29.0819C94.3877 27.1049 95.9016 24.8985 97.0935 22.5185C97.4027 21.9011 96.4775 21.3553 96.1671 21.9751C95.0156 24.2747 93.5694 26.4102 91.8507 28.3207C91.3891 28.8338 92.1454 29.5975 92.6093 29.0819Z" fill="#E6E6E6"/>
<path d="M165.892 101.352C165.854 101.352 165.815 101.35 165.776 101.348C163.21 101.182 154.432 99.9363 149.189 90.8397C148.802 90.1682 148.878 89.3139 149.379 88.7143H149.38L159.197 76.9767C159.561 76.5408 160.108 76.3025 160.662 76.3123C161.23 76.3258 161.96 76.4949 162.099 77.0493C163.23 81.5537 168.101 87.4029 174.447 88.1788C175.044 88.2517 175.405 88.873 175.551 89.4555C175.696 90.033 175.562 90.6284 175.184 91.0888L167.319 100.672C166.966 101.103 166.439 101.352 165.892 101.352Z" fill="#E6E6E6"/>
<path d="M150.865 89.1762L151.002 89.2915C150.868 89.452 150.844 89.6808 150.942 89.8617C155.685 98.6258 164.164 99.3133 165.816 99.362C165.975 99.3711 166.124 99.2993 166.225 99.1763L174.033 89.6623C174.143 89.5274 174.178 89.3553 174.127 89.1892C174.075 89.0224 173.956 88.8572 173.781 88.8489C167.03 88.5312 161.609 81.206 161.335 77.9191C161.321 77.7626 161.099 77.7162 160.943 77.711C160.783 77.7094 160.637 77.7726 160.535 77.8946L151.002 89.2915L150.865 89.1762Z" fill="white"/>
<path d="M154.934 91.3444L162.012 84.1026C162.496 83.6076 161.738 82.8458 161.253 83.3414L154.176 90.5832C153.692 91.0782 154.45 91.84 154.934 91.3444Z" fill="#E6E6E6"/>
<path d="M159.206 93.3845C161.16 91.6276 162.857 89.5933 164.247 87.3612C164.614 86.7719 163.686 86.2309 163.321 86.8178C161.977 88.9759 160.336 90.925 158.448 92.6233C157.932 93.0867 158.693 93.846 159.206 93.3845H159.206V93.3845Z" fill="#E6E6E6"/>
<path d="M163.056 95.8275C164.835 93.8505 166.349 91.6441 167.54 89.2641C167.85 88.6467 166.924 88.1009 166.614 88.7207C165.463 91.0203 164.016 93.1558 162.298 95.0663C161.836 95.5794 162.592 96.3431 163.056 95.8275Z" fill="#E6E6E6"/>
<path d="M136.482 163.918L132.241 163.917L130.224 147.503L136.483 147.503L136.482 163.918Z" fill="#FFB6B6"/>
<path d="M121.952 163.821C121.82 164.044 121.751 164.765 121.751 165.024C121.751 165.822 122.395 166.468 123.19 166.468H136.323C136.866 166.468 137.305 166.027 137.305 165.483V164.934C137.305 164.934 137.955 163.285 136.617 161.253C136.617 161.253 134.955 162.844 132.471 160.351L131.738 159.02L126.436 162.911L123.496 163.274C122.853 163.354 122.283 163.262 121.953 163.821H121.952Z" fill="#2F2E41"/>
<path d="M175.643 155.519L172.03 157.749L161.741 144.829L167.072 141.538L175.643 155.519Z" fill="#FFB6B6"/>
<path d="M163.217 163.077C163.221 163.337 163.538 163.987 163.673 164.208C164.09 164.887 164.976 165.099 165.653 164.681L176.839 157.775C177.301 157.49 177.445 156.883 177.161 156.42L176.875 155.953C176.875 155.953 176.567 154.206 174.366 153.178C174.366 153.178 173.781 155.408 170.364 154.591L169.045 153.842L166.56 159.945L164.246 161.8C163.74 162.205 163.207 162.427 163.217 163.077L163.217 163.077L163.217 163.077Z" fill="#2F2E41"/>
<path d="M148.988 87.1431C148.778 86.2242 148.794 85.3322 148.991 84.5931L146.436 75.9708L150.596 74.8389L152.74 83.7072C153.237 84.2824 153.638 85.0758 153.848 85.9947C154.328 88.0938 153.629 90.0526 152.286 90.3697C150.944 90.6869 149.468 89.2422 148.988 87.1431L148.988 87.1431V87.1431Z" fill="#FFB6B6"/>
<path d="M125.316 29.6694C125.316 29.6694 132.021 26.7408 135.765 30.9728C139.172 34.8247 146.09 46.4156 145.379 47.5434L152.189 79.8341L147.142 81.3945L133.751 44.2528L125.316 29.6694H125.316V29.6694Z" fill="#0661B0"/>
<path d="M117.932 77.523L121.387 117.966L129.735 155.521L138.659 154.654L134.341 113.633L136.984 77.1775L117.932 77.523Z" fill="#2F2E41"/>
<path d="M118.646 86.2984L140.163 120.671L164.713 150.228L172.252 145.359L149.705 110.869C146.254 95.6765 142.432 81.6131 135.428 77.2415L118.646 86.2984L118.646 86.2984V86.2984Z" fill="#2F2E41"/>
<path d="M119.902 86.4665C118.893 86.4665 117.915 86.1097 117.119 85.432C116.049 84.5219 115.492 83.1953 115.59 81.7922L117.467 63.7212L116.75 43.9879L116.755 43.9665L118.983 33.2431C119.005 32.9023 119.076 32.5416 119.191 32.1952L122.483 22.2648C123.075 20.4786 124.732 19.2786 126.608 19.2786H129.519C130.976 19.2786 132.328 20.0048 133.137 21.2216L135.684 25.0567C135.854 25.3115 135.997 25.585 136.109 25.8698L141.734 40.1156C141.912 40.5678 142.014 41.0435 142.036 41.5294L143.781 81.0655C143.839 82.3781 143.313 83.6342 142.337 84.5117C141.368 85.3843 140.074 85.7702 138.792 85.5715C131.447 84.4332 125.018 85.364 120.918 86.3456C120.58 86.4265 120.239 86.4665 119.902 86.4665V86.4665L119.902 86.4665Z" fill="#0661B0"/>
<path d="M119.084 47.1905L114.19 43.4351C114.19 43.4351 116.493 22.9246 122.538 22.9246C128.584 22.9246 131.75 19.458 131.75 19.458C131.75 19.458 153.341 49.7905 147.295 53.257C141.25 56.7236 132.902 54.9903 132.902 54.9903L129.961 29.0783C129.6 27.7086 127.721 27.5603 127.151 28.8565L119.084 47.1905L119.084 47.1905L119.084 47.1905Z" fill="#3F3D56"/>
<path d="M127.135 18.3948C131.756 18.3948 135.502 14.6353 135.502 9.99769C135.502 5.3601 131.756 1.60059 127.135 1.60059C122.513 1.60059 118.767 5.3601 118.767 9.99769C118.767 14.6353 122.513 18.3948 127.135 18.3948Z" fill="#FFB6B6"/>
<path d="M133.761 16.3456C133.006 16.6284 131.849 17.0681 131.094 17.3509C130.39 15.9427 131.253 15.2119 131.342 13.639C131.372 13.1141 131.448 12.5886 131.404 12.0646C131.361 11.5407 131.182 11.0028 130.788 10.6561C130.185 10.1258 129.182 10.212 128.598 10.7636C128.015 11.3152 127.849 12.2266 128.087 12.9945C125.793 11.9992 124.311 9.38812 124.627 6.90004C123.942 6.63051 123.24 6.35733 122.504 6.33671C121.769 6.31608 120.98 6.59781 120.588 7.22285C120.313 7.66113 120.258 8.21749 119.95 8.63264C119.449 9.3072 118.365 9.35948 117.7 8.84778C117.034 8.33609 116.779 7.40621 116.921 6.57689C117.063 5.74758 116.03 4.05517 116.609 3.4458C117.003 3.03011 118.961 3.61912 119.401 3.25242C119.803 2.91786 120.206 2.5822 120.648 2.30465C121.21 1.95235 121.832 1.69722 122.479 1.55386C123.091 1.41826 123.72 1.38264 124.345 1.34745C124.981 1.31173 125.859 0.0425696 126.494 0.0068463C128.364 -0.0983248 130.036 1.03486 131.83 1.57436C133.624 2.11387 134.753 3.66311 135.746 5.25673C137.161 7.52668 136.68 10.0139 135.706 12.1844C135.465 12.721 136.273 13.2848 136.153 13.8608C136.042 14.3962 135.542 14.784 135.425 15.3183C135.325 15.7751 134.735 15.2458 134.594 15.6916C134.472 16.0763 134.114 16.3479 133.73 16.4707C133.347 16.5935 132.937 16.591 132.535 16.5873" fill="#2F2E41"/>
<path d="M131.965 19.2424L132.26 19.4579L133.003 20.0011C135.239 21.6343 135.031 25.0435 132.614 26.3911L129.591 21.5461" fill="#3F3D56"/>
<path d="M180.597 160.78C181.336 160.827 181.744 159.906 181.185 159.369L181.13 159.147C181.137 159.129 181.144 159.111 181.152 159.094C181.899 157.306 184.431 157.318 185.172 159.109C185.829 160.698 186.666 162.289 186.872 163.97C186.965 164.711 186.923 165.467 186.759 166.195C188.3 162.818 189.11 159.13 189.11 155.422C189.11 154.49 189.06 153.558 188.956 152.629C188.87 151.869 188.752 151.113 188.6 150.364C187.775 146.318 185.99 142.463 183.415 139.244C182.177 138.565 181.144 137.503 180.521 136.231C180.297 135.772 180.121 135.278 180.038 134.775C180.179 134.794 180.569 132.641 180.463 132.508C180.659 132.209 181.011 132.061 181.225 131.769C182.292 130.318 183.761 130.572 184.528 132.543C186.167 133.373 186.182 134.749 185.177 136.073C184.537 136.915 184.449 138.055 183.888 138.956C183.946 139.031 184.006 139.102 184.064 139.177C185.123 140.54 186.038 142.004 186.81 143.543C186.592 141.833 186.914 139.772 187.464 138.444C188.089 136.931 189.261 135.656 190.292 134.348C191.532 132.777 194.073 133.462 194.292 135.454C194.294 135.474 194.296 135.493 194.298 135.512C194.145 135.599 193.995 135.691 193.848 135.789C193.011 136.344 193.3 137.645 194.292 137.799L194.314 137.802C194.259 138.356 194.164 138.905 194.025 139.445C195.349 144.583 192.491 146.454 188.411 146.538C188.321 146.584 188.233 146.631 188.143 146.675C188.556 147.843 188.886 149.041 189.131 150.255C189.351 151.329 189.503 152.413 189.589 153.503C189.695 154.877 189.686 156.258 189.57 157.631L189.577 157.582C189.87 156.071 190.688 154.659 191.875 153.681C193.644 152.223 196.142 151.686 198.05 150.515C198.969 149.95 200.146 150.679 199.985 151.748L199.977 151.799C199.693 151.915 199.416 152.049 199.148 152.2C198.995 152.287 198.845 152.379 198.698 152.476C197.862 153.032 198.151 154.333 199.142 154.487L199.164 154.49C199.181 154.492 199.195 154.495 199.211 154.497C198.723 155.658 198.044 156.736 197.194 157.665C196.367 162.15 192.812 162.575 189.009 161.269H189.006C188.591 163.087 187.983 164.862 187.203 166.554H180.759C180.735 166.482 180.715 166.408 180.694 166.336C181.29 166.373 181.89 166.338 182.477 166.229C181.999 165.641 181.521 165.047 181.043 164.459C181.031 164.447 181.022 164.435 181.013 164.424C180.77 164.123 180.525 163.824 180.283 163.522L180.283 163.522C180.267 162.597 180.378 161.675 180.597 160.78L180.597 160.78L180.597 160.78V160.78Z" fill="#F2F2F2"/>
<path d="M69.1866 166.573C69.1866 166.81 69.3762 167 69.6122 167H199.524C199.76 167 199.95 166.81 199.95 166.573C199.95 166.336 199.76 166.146 199.524 166.146H69.6122C69.3762 166.146 69.1866 166.336 69.1866 166.573Z" fill="#CCCCCC"/>
<path d="M89.7639 29.236C90.5186 29.7357 91.0981 30.365 91.4507 31.0071L98.9392 35.312L96.7936 38.8278L89.4283 34.0824C88.7014 34.0096 87.8969 33.7223 87.1422 33.2226C85.4183 32.081 84.6076 30.2631 85.3316 29.1622C86.0556 28.0613 88.04 28.0943 89.7639 29.236H89.7639L89.7639 29.236Z" fill="#FFB6B6"/>
<path d="M124.997 24.698C129.772 21.7591 134.571 28.4893 130.325 32.1562L130.311 32.1687L113.345 48.181L93.0417 38.1198L95.0494 32.6874L110.78 38.9404L122.58 26.6478C123.401 25.8225 124.209 25.1829 124.997 24.698H124.997Z" fill="#0661B0"/>
<path d="M24.4222 51.4341C24.0278 51.4341 23.707 51.756 23.707 52.1518V63.2761C23.707 63.6719 24.0278 63.9938 24.4222 63.9938C24.8167 63.9938 25.1374 63.6719 25.1374 63.2761V52.1518C25.1374 51.756 24.8167 51.4341 24.4222 51.4341Z" fill="#3F3D56"/>
<path d="M31.4316 62.1533C33.893 62.1533 35.8884 60.1932 35.8884 57.7752C35.8884 55.3572 33.893 53.397 31.4316 53.397C28.9701 53.397 26.9747 55.3572 26.9747 57.7752C26.9747 60.1932 28.9701 62.1533 31.4316 62.1533Z" fill="#0661B0"/>
<path d="M67.1603 56.2773H43.1708C42.3478 56.2773 41.6782 55.6054 41.6782 54.7795C41.6782 53.9537 42.3478 53.2817 43.1708 53.2817H67.1603C67.9833 53.2817 68.6529 53.9537 68.6529 54.7795C68.6529 55.6054 67.9833 56.2773 67.1603 56.2773Z" fill="#F2F2F2"/>
<path d="M85.8818 61.3469H43.1708C42.3478 61.3469 41.6782 60.675 41.6782 59.8491C41.6782 59.0233 42.3478 58.3513 43.1708 58.3513H85.8818C86.7048 58.3513 87.3744 59.0233 87.3744 59.8491C87.3744 60.675 86.7048 61.3469 85.8818 61.3469H85.8818Z" fill="#F2F2F2"/>
<path d="M4.45686 85.8303C6.91831 85.8303 8.91371 83.8702 8.91371 81.4522C8.91371 79.0342 6.91831 77.074 4.45686 77.074C1.9954 77.074 0 79.0342 0 81.4522C0 83.8702 1.9954 85.8303 4.45686 85.8303Z" fill="#0661B0"/>
<path d="M40.1856 79.9543H16.1961C15.3731 79.9543 14.7035 79.2824 14.7035 78.4565C14.7035 77.6307 15.3731 76.9587 16.1961 76.9587H40.1856C41.0086 76.9587 41.6782 77.6307 41.6782 78.4565C41.6782 79.2824 41.0086 79.9543 40.1856 79.9543Z" fill="#F2F2F2"/>
<path d="M46.3167 100.188C48.7782 100.188 50.7736 98.2276 50.7736 95.8096C50.7736 93.3916 48.7782 91.4314 46.3167 91.4314C43.8553 91.4314 41.8599 93.3916 41.8599 95.8096C41.8599 98.2276 43.8553 100.188 46.3167 100.188Z" fill="#0661B0"/>
<path d="M100.767 99.3811H58.0558C57.2328 99.3811 56.5632 98.7092 56.5632 97.8833C56.5632 97.0574 57.2328 96.3855 58.0558 96.3855H100.767C101.59 96.3855 102.259 97.0574 102.259 97.8833C102.259 98.7092 101.59 99.3811 100.767 99.3811H100.767Z" fill="#F2F2F2"/>
<path d="M90.2149 18.323C92.6764 18.323 94.6718 16.3628 94.6718 13.9448C94.6718 11.5268 92.6764 9.56665 90.2149 9.56665C87.7535 9.56665 85.7581 11.5268 85.7581 13.9448C85.7581 16.3628 87.7535 18.323 90.2149 18.323Z" fill="#0661B0"/>
<path d="M172.252 91.721C174.714 91.721 176.709 89.7608 176.709 87.3428C176.709 84.9248 174.714 82.9646 172.252 82.9646C169.791 82.9646 167.796 84.9248 167.796 87.3428C167.796 89.7608 169.791 91.721 172.252 91.721Z" fill="#0661B0"/>
</g>
<defs>
<clipPath id="clip0_69_1880">
<rect width="200" height="167" fill="white"/>
</clipPath>
</defs>
</svg>
