<svg width="180" height="167" fill="none" xmlns="http://www.w3.org/2000/svg">
<g clip-path="url(#clip0_69_1932)">
<path d="M165.779 127.76L173.789 129.012C176.501 125.729 178.37 121.834 179.234 117.665C173.377 122.459 164.47 119.911 157.368 122.529C155.159 123.362 153.166 124.682 151.536 126.39C149.907 128.098 148.683 130.151 147.955 132.397L144.04 136.609C147.584 138.012 151.389 138.63 155.194 138.42C159 138.211 162.714 137.179 166.083 135.395C167.962 134.376 169.706 133.124 171.273 131.669C168.47 129.905 165.779 127.76 165.779 127.76Z" fill="#F2F2F2"/>
<path d="M162.936 114.949L170.663 112.497C171.626 108.35 171.562 104.03 170.476 99.9128C167.372 106.816 158.263 108.508 153.074 114.018C151.469 115.749 150.273 117.819 149.577 120.075C148.88 122.331 148.7 124.714 149.05 127.049L147.425 132.565C151.222 132.24 154.904 131.096 158.216 129.211C161.529 127.327 164.393 124.746 166.612 121.648C167.84 119.897 168.843 117.999 169.596 115.998C166.301 115.669 162.936 114.949 162.936 114.949Z" fill="#F2F2F2"/>
<path d="M179.277 139.16C179.277 139.202 179.269 139.242 179.253 139.281C179.238 139.319 179.215 139.354 179.185 139.383C179.156 139.412 179.121 139.435 179.083 139.451C179.045 139.467 179.004 139.475 178.963 139.475H1.03725C0.953848 139.475 0.87386 139.442 0.814885 139.383C0.75591 139.324 0.722778 139.244 0.722778 139.16C0.722778 139.077 0.75591 138.997 0.814885 138.938C0.87386 138.879 0.953848 138.846 1.03725 138.846H178.963C179.004 138.846 179.045 138.854 179.083 138.869C179.121 138.885 179.156 138.908 179.185 138.938C179.215 138.967 179.238 139.001 179.253 139.04C179.269 139.078 179.277 139.119 179.277 139.16Z" fill="#CCCCCC"/>
<path d="M74.4515 125.754C105.83 125.754 131.268 100.316 131.268 68.9371C131.268 37.5582 105.83 12.1206 74.4515 12.1206C43.0726 12.1206 17.635 37.5582 17.635 68.9371C17.635 100.316 43.0726 125.754 74.4515 125.754Z" fill="#E6E6E6"/>
<path d="M123.34 68.9372C123.346 76.5656 121.564 84.0892 118.137 90.9047C114.71 97.7201 109.734 103.638 103.608 108.183C103.198 108.489 102.78 108.788 102.36 109.079C94.1676 114.774 84.4289 117.826 74.4515 117.826C64.474 117.826 54.7353 114.774 46.5427 109.079C46.1225 108.788 45.705 108.489 45.2953 108.183C39.173 103.634 34.2 97.7153 30.7737 90.9007C27.3473 84.0862 25.5629 76.5646 25.5629 68.9372C25.5629 61.3098 27.3473 53.7881 30.7737 46.9736C34.2 40.1591 39.173 34.2407 45.2953 29.6915C45.705 29.385 46.1225 29.0864 46.5427 28.7957C54.7353 23.1009 64.474 20.0486 74.4515 20.0486C84.4289 20.0486 94.1676 23.1009 102.36 28.7957C102.78 29.0864 103.198 29.385 103.608 29.6915C109.734 34.2367 114.71 40.1543 118.137 46.9697C121.564 53.7851 123.346 61.3088 123.34 68.9372Z" fill="white"/>
<path d="M74.4515 113.597C99.1167 113.597 119.112 93.6023 119.112 68.937C119.112 44.2718 99.1167 24.2766 74.4515 24.2766C49.7862 24.2766 29.7911 44.2718 29.7911 68.937C29.7911 93.6023 49.7862 113.597 74.4515 113.597Z" fill="#0661B0"/>
<path opacity="0.2" d="M74.568 24.4016C73.8909 24.4016 73.2181 24.4193 72.5484 24.4491C83.8361 25.441 94.3247 30.6865 101.889 39.1229C109.454 47.5593 113.529 58.5558 113.288 69.8844C113.048 81.213 108.51 92.0266 100.594 100.134C92.6785 108.242 81.9768 113.038 70.6572 113.55C71.9462 113.662 73.25 113.722 74.568 113.722C86.4126 113.722 97.7722 109.017 106.148 100.642C114.523 92.2662 119.228 80.9067 119.228 69.062C119.228 57.2173 114.523 45.8578 106.148 37.4823C97.7722 29.1069 86.4126 24.4016 74.568 24.4016V24.4016Z" fill="black"/>
<path d="M74.5836 21.1055C74.1984 21.1061 73.8291 21.2595 73.5566 21.5319C73.2842 21.8043 73.1309 22.1736 73.1302 22.5589V28.9012C73.1302 29.2867 73.2833 29.6564 73.5559 29.929C73.8285 30.2015 74.1982 30.3547 74.5836 30.3547C74.9691 30.3547 75.3388 30.2015 75.6114 29.929C75.884 29.6564 76.0371 29.2867 76.0371 28.9012V22.5589C76.0364 22.1736 75.883 21.8043 75.6106 21.5319C75.3382 21.2595 74.9689 21.1061 74.5836 21.1055Z" fill="white"/>
<path d="M103.608 29.6914C103.198 29.3849 102.78 29.0862 102.36 28.7956C102.108 28.7791 101.856 28.8287 101.629 28.9395C101.402 29.0503 101.208 29.2183 101.065 29.4271L97.4952 34.6675C97.2783 34.986 97.1968 35.3777 97.2687 35.7563C97.3405 36.1349 97.5598 36.4695 97.8784 36.6864C98.1969 36.9034 98.5886 36.9848 98.9672 36.913C99.3459 36.8411 99.6804 36.6218 99.8973 36.3033L103.468 31.0629C103.603 30.8641 103.687 30.6345 103.712 30.395C103.736 30.1554 103.7 29.9136 103.608 29.6914Z" fill="white"/>
<path d="M119.828 53.5861C119.756 53.4094 119.65 53.2486 119.516 53.1129C119.382 52.9771 119.223 52.8691 119.047 52.795C118.872 52.7209 118.683 52.6821 118.492 52.6809C118.302 52.6797 118.113 52.7161 117.936 52.788L112.059 55.1743C111.702 55.3196 111.418 55.6007 111.268 55.9556C111.118 56.3106 111.116 56.7104 111.261 57.0673C111.406 57.4242 111.686 57.7089 112.041 57.8589C112.396 58.0088 112.796 58.0118 113.153 57.8672L119.03 55.4809C119.387 55.3348 119.671 55.0534 119.82 54.6983C119.97 54.3432 119.973 53.9433 119.828 53.5861Z" fill="white"/>
<path d="M51.4077 34.6675L47.8376 29.4271C47.6953 29.2183 47.501 29.0503 47.2739 28.9395C47.0468 28.8287 46.7948 28.7791 46.5427 28.7956C46.1225 29.0862 45.705 29.3849 45.2953 29.6914C45.2025 29.9136 45.1667 30.1554 45.1911 30.395C45.2156 30.6345 45.2996 30.8641 45.4354 31.0629L49.0056 36.3033C49.2225 36.6218 49.5571 36.8411 49.9357 36.913C50.3143 36.9849 50.706 36.9034 51.0246 36.6864C51.3431 36.4695 51.5624 36.135 51.6343 35.7563C51.7061 35.3777 51.6247 34.986 51.4077 34.6675Z" fill="white"/>
<path d="M36.8443 55.1742L30.967 52.7879C30.61 52.6429 30.2099 52.6457 29.8549 52.7956C29.4999 52.9456 29.2189 53.2304 29.0739 53.5874C28.9288 53.9445 28.9315 54.3445 29.0814 54.6996C29.2312 55.0546 29.516 55.3356 29.873 55.4808L35.7502 57.867C36.1072 58.0117 36.5071 58.0087 36.8619 57.8587C37.2167 57.7087 37.4974 57.424 37.6424 57.0671C37.7874 56.7103 37.7848 56.3104 37.6351 55.9555C37.4855 55.6005 37.201 55.3195 36.8443 55.1742V55.1742Z" fill="white"/>
<path d="M74.5836 107.52C74.1984 107.52 73.8291 107.674 73.5566 107.946C73.2842 108.218 73.1309 108.588 73.1302 108.973V115.315C73.1302 115.701 73.2833 116.07 73.5559 116.343C73.8285 116.616 74.1982 116.769 74.5836 116.769C74.9691 116.769 75.3388 116.616 75.6114 116.343C75.884 116.07 76.0371 115.701 76.0371 115.315V108.973C76.0364 108.588 75.883 108.218 75.6106 107.946C75.3382 107.674 74.9689 107.52 74.5836 107.52Z" fill="white"/>
<path d="M103.468 106.811L99.8974 101.571C99.7899 101.413 99.6525 101.278 99.4929 101.174C99.3333 101.069 99.1547 100.997 98.9672 100.961C98.7797 100.926 98.5871 100.927 98.4003 100.966C98.2135 101.005 98.0361 101.08 97.8784 101.188C97.7207 101.295 97.5856 101.433 97.481 101.592C97.3764 101.752 97.3042 101.93 97.2686 102.118C97.2331 102.305 97.2348 102.498 97.2736 102.685C97.3125 102.872 97.3878 103.049 97.4952 103.207L101.065 108.447C101.208 108.656 101.402 108.824 101.629 108.935C101.856 109.046 102.108 109.095 102.36 109.079C102.78 108.788 103.198 108.489 103.608 108.183C103.7 107.961 103.736 107.719 103.712 107.479C103.687 107.24 103.603 107.01 103.468 106.811Z" fill="white"/>
<path d="M119.03 82.3935L113.153 80.0072C112.796 79.8622 112.396 79.8649 112.041 80.0149C111.686 80.1648 111.405 80.4496 111.26 80.8067C111.115 81.1637 111.117 81.5638 111.267 81.9188C111.417 82.2739 111.702 82.5549 112.059 82.7L117.936 85.0863C118.293 85.231 118.693 85.228 119.048 85.078C119.402 84.928 119.683 84.6433 119.828 84.2864C119.973 83.9295 119.971 83.5297 119.821 83.1747C119.671 82.8198 119.387 82.5388 119.03 82.3934V82.3935Z" fill="white"/>
<path d="M51.0246 101.188C50.706 100.971 50.3144 100.889 49.9358 100.961C49.5572 101.033 49.2226 101.252 49.0057 101.571L45.4355 106.811C45.2996 107.01 45.2156 107.24 45.1912 107.479C45.1667 107.719 45.2026 107.961 45.2954 108.183C45.705 108.489 46.1225 108.788 46.5427 109.079C46.7949 109.095 47.0469 109.045 47.274 108.935C47.5011 108.824 47.6953 108.656 47.8376 108.447L51.4078 103.207C51.5152 103.049 51.5905 102.872 51.6294 102.685C51.6683 102.498 51.67 102.305 51.6344 102.118C51.5988 101.93 51.5266 101.752 51.422 101.592C51.3174 101.432 51.1823 101.295 51.0246 101.188Z" fill="white"/>
<path d="M37.6423 80.8051C37.5705 80.6284 37.4646 80.4676 37.3307 80.3319C37.1967 80.1961 37.0373 80.0881 36.8616 80.014C36.6859 79.9399 36.4973 79.9011 36.3066 79.8999C36.1159 79.8987 35.9268 79.9351 35.7502 80.007L29.873 82.3933C29.5163 82.5386 29.2318 82.8197 29.0821 83.1746C28.9325 83.5295 28.9298 83.9294 29.0748 84.2863C29.2198 84.6431 29.5006 84.9279 29.8554 85.0779C30.2102 85.2278 30.61 85.2308 30.967 85.0862L36.8442 82.6999C37.2008 82.5538 37.485 82.2724 37.6346 81.9173C37.7842 81.5622 37.787 81.1623 37.6423 80.8051Z" fill="white"/>
<path d="M76.4694 68.2159C76.6037 69.0104 76.4172 69.8256 75.9511 70.4828C75.485 71.14 74.7772 71.5855 73.9831 71.7215L48.1915 76.1086C47.7981 76.1755 47.3953 76.1643 47.0062 76.0756C46.6171 75.9868 46.2493 75.8223 45.9238 75.5915C45.5982 75.3606 45.3214 75.0678 45.109 74.73C44.8966 74.3921 44.7528 74.0157 44.6859 73.6222C44.619 73.2288 44.6302 72.826 44.719 72.4369C44.8077 72.0478 44.9722 71.68 45.2031 71.3545C45.434 71.029 45.7267 70.7521 46.0646 70.5397C46.4024 70.3273 46.7789 70.1836 47.1723 70.1166L72.9638 65.7295C73.7583 65.5953 74.5736 65.7817 75.2308 66.2479C75.888 66.714 76.3334 67.4218 76.4694 68.2159Z" fill="#3F3D56"/>
<path d="M103.614 96.791C103.244 97.1636 102.741 97.3741 102.215 97.3761C101.69 97.3782 101.185 97.1717 100.811 96.802L73.0472 69.2556C72.6746 68.8852 72.4643 68.3821 72.4625 67.8568C72.4606 67.3315 72.6675 66.8269 73.0375 66.454C73.4075 66.081 73.9104 65.8702 74.4357 65.8679C74.961 65.8656 75.4658 66.072 75.8391 66.4416L103.603 93.9881C103.976 94.3586 104.186 94.8618 104.188 95.3873C104.191 95.9127 103.984 96.4176 103.614 96.791Z" fill="#3F3D56"/>
<path d="M74.4515 72.3725C76.3488 72.3725 77.8869 70.8345 77.8869 68.9371C77.8869 67.0398 76.3488 65.5017 74.4515 65.5017C72.5541 65.5017 71.0161 67.0398 71.0161 68.9371C71.0161 70.8345 72.5541 72.3725 74.4515 72.3725Z" fill="#CCCCCC"/>
<path d="M50.7883 9.36666C45.515 17.6572 37.4691 23.1593 27.5465 26.7738C27.3504 26.9206 27.1273 27.0274 26.89 27.088C26.6527 27.1487 26.4057 27.162 26.1632 27.1272C25.9207 27.0924 25.6875 27.0101 25.4768 26.8852C25.2661 26.7602 25.082 26.595 24.9352 26.3989C19.5453 19.2024 20.7623 8.91713 27.8758 3.41815C29.5956 2.091 31.5619 1.11868 33.6606 0.557658C35.7592 -0.00336532 37.9484 -0.141925 40.101 0.150026C42.2536 0.441978 44.3268 1.15862 46.2002 2.25836C48.0736 3.35809 49.7099 4.81901 51.0141 6.5563L51.1632 6.75534C51.31 6.95142 51.4168 7.17449 51.4775 7.41184C51.5381 7.64919 51.5514 7.89615 51.5166 8.13863C51.4818 8.38112 51.3995 8.61437 51.2746 8.82508C51.1496 9.03578 50.9844 9.21982 50.7883 9.36666Z" fill="#E6E6E6"/>
<path d="M97.8888 6.55629C99.193 4.81901 100.829 3.35809 102.703 2.25835C104.576 1.15862 106.649 0.441979 108.802 0.150027C110.955 -0.141924 113.144 -0.00336821 115.242 0.557656C117.341 1.11868 119.307 2.09099 121.027 3.41815C128.141 8.91713 129.358 19.2024 123.968 26.3989C123.821 26.595 123.637 26.7602 123.426 26.8852C123.215 27.0101 122.982 27.0924 122.74 27.1272C122.497 27.162 122.25 27.1487 122.013 27.088C121.776 27.0274 121.553 26.9206 121.356 26.7738C112.145 23.2471 104.591 17.1442 98.1146 9.36666C97.7186 9.07008 97.4567 8.62834 97.3864 8.13862C97.3161 7.64891 97.4432 7.15132 97.7398 6.75533L97.8888 6.55629Z" fill="#E6E6E6"/>
<path d="M95.5775 118.161C95.2416 118.35 94.9942 118.664 94.8895 119.035C94.7848 119.405 94.8313 119.803 95.0189 120.139L103.407 135.129C103.595 135.465 103.91 135.713 104.28 135.818C104.651 135.922 105.049 135.875 105.385 135.687C105.721 135.499 105.969 135.185 106.074 134.814C106.179 134.443 106.132 134.046 105.944 133.709L97.5556 118.72C97.3669 118.384 97.0527 118.136 96.6819 118.032C96.3112 117.927 95.914 117.973 95.5775 118.161Z" fill="#E6E6E6"/>
<path d="M51.3473 118.72L42.9592 133.709C42.771 134.046 42.7242 134.443 42.829 134.814C42.9338 135.185 43.1816 135.499 43.5179 135.687C43.8542 135.875 44.2516 135.922 44.6225 135.817C44.9934 135.713 45.3076 135.465 45.4959 135.129L53.8841 120.139C53.9773 119.973 54.0369 119.789 54.0593 119.6C54.0817 119.41 54.0665 119.218 54.0147 119.034C53.9628 118.85 53.8753 118.679 53.757 118.529C53.6388 118.379 53.4922 118.254 53.3256 118.161C53.1591 118.067 52.9757 118.008 52.7862 117.986C52.5966 117.963 52.4044 117.978 52.2207 118.03C52.037 118.082 51.8653 118.17 51.7155 118.288C51.5656 118.406 51.4405 118.553 51.3474 118.72H51.3473Z" fill="#E6E6E6"/>
<path d="M105.106 138.967C107.587 138.967 109.598 136.956 109.598 134.474C109.598 131.993 107.587 129.982 105.106 129.982C102.625 129.982 100.613 131.993 100.613 134.474C100.613 136.956 102.625 138.967 105.106 138.967Z" fill="#E6E6E6"/>
<path d="M108.277 24.0125C110.758 24.0125 112.77 22.0012 112.77 19.5201C112.77 17.0389 110.758 15.0276 108.277 15.0276C105.796 15.0276 103.785 17.0389 103.785 19.5201C103.785 22.0012 105.796 24.0125 108.277 24.0125Z" fill="#E6E6E6"/>
<path d="M74.1872 13.442C76.6683 13.442 78.6797 11.4306 78.6797 8.9495C78.6797 6.46838 76.6683 4.45703 74.1872 4.45703C71.7061 4.45703 69.6948 6.46838 69.6948 8.9495C69.6948 11.4306 71.7061 13.442 74.1872 13.442Z" fill="#E6E6E6"/>
<path d="M41.6829 23.484C44.164 23.484 46.1754 21.4726 46.1754 18.9915C46.1754 16.5104 44.164 14.499 41.6829 14.499C39.2018 14.499 37.1904 16.5104 37.1904 18.9915C37.1904 21.4726 39.2018 23.484 41.6829 23.484Z" fill="#E6E6E6"/>
<path d="M44.5898 138.967C47.0709 138.967 49.0822 136.956 49.0822 134.474C49.0822 131.993 47.0709 129.982 44.5898 129.982C42.1086 129.982 40.0973 131.993 40.0973 134.474C40.0973 136.956 42.1086 138.967 44.5898 138.967Z" fill="#E6E6E6"/>
<path d="M101.582 94.2644C101.759 94.5417 101.995 94.7768 102.273 94.9531C102.55 95.1294 102.863 95.2427 103.19 95.2849C103.516 95.3272 103.848 95.2974 104.161 95.1976C104.475 95.0979 104.762 94.9306 105.004 94.7075L112.054 98.4848L111.676 94.346L105.039 91.3936C104.638 91.0121 104.11 90.7912 103.557 90.7727C103.003 90.7543 102.462 90.9395 102.036 91.2934C101.609 91.6472 101.328 92.1451 101.244 92.6927C101.161 93.2403 101.281 93.7995 101.582 94.2644H101.582Z" fill="#FFB7B7"/>
<path d="M106.718 95.7087L109.481 91.8955L122.789 98.1867L139.35 95.0794C140.168 94.9258 141.011 94.9544 141.817 95.1629C142.623 95.3715 143.374 95.7551 144.015 96.2863C144.657 96.8176 145.173 97.4835 145.528 98.2369C145.883 98.9903 146.068 99.8126 146.07 100.645C146.071 102.15 145.475 103.593 144.414 104.659C143.352 105.724 141.911 106.325 140.406 106.33L121.428 106.365L106.718 95.7087Z" fill="#3F3D56"/>
<path d="M102.464 161.57L99.6686 160.233L103.508 148.551L107.633 150.524L102.464 161.57Z" fill="#FFB7B7"/>
<path d="M121.201 159.686C120.998 159.814 120.795 159.939 120.59 160.064C120.181 160.315 119.768 160.561 119.356 160.803C119.148 160.924 118.939 161.046 118.732 161.165V161.171L118.719 161.173L118.715 161.175L118.399 161.253L117.945 160.054L117.736 159.502L117.44 158.72L116.898 157.289L114.045 149.754L118.481 148.66L118.648 149.339H118.65L118.732 149.676L120.282 155.962L120.598 157.248L120.608 157.287L120.799 158.054L120.963 158.72L121.146 159.463L121.201 159.686Z" fill="#FFB7B7"/>
<path d="M147.667 133.227C147.386 133.679 147.098 134.129 146.809 134.574C146.271 135.403 145.719 136.221 145.152 137.025C145.152 137.027 145.15 137.027 145.148 137.029C144.817 137.336 144.452 137.602 144.06 137.824C144.043 137.836 144.025 137.844 144.009 137.855C143.72 138.014 143.412 138.138 143.093 138.222C142.978 138.251 142.861 138.28 142.746 138.308C142.331 138.407 141.921 138.491 141.512 138.565C140.785 138.694 140.067 138.787 139.352 138.844C139.295 138.85 139.237 138.854 139.18 138.859C136.242 139.074 133.382 138.727 130.397 138.159C128.923 137.879 127.418 137.545 125.86 137.198C125.351 137.083 124.84 136.97 124.322 136.857C124.283 136.849 124.242 136.838 124.201 136.83C123.462 136.668 122.711 136.508 121.941 136.35C120.972 136.151 119.972 135.958 118.933 135.775L119.007 137.239C119.069 138.365 119.303 139.475 119.701 140.53C120.145 141.827 120.496 142.854 119.755 144.991L119.397 146.026C119.583 146.539 119.646 147.089 119.583 147.632C119.52 148.174 119.332 148.695 119.034 149.152L118.962 149.261L121.941 156.798L122.134 157.286H120.609L118.732 157.288H115.552L110.964 148.083L110.744 147.643V147.621L111.218 129.93C111.224 129.774 111.237 129.616 111.257 129.46C111.341 128.751 111.565 128.065 111.916 127.443C112.268 126.822 112.74 126.276 113.304 125.839C113.845 125.416 114.465 125.105 115.127 124.924C115.789 124.742 116.481 124.695 117.162 124.783L118.732 124.987L121.941 125.401L124.201 125.695L124.247 125.701L130.913 126.563L131.391 124.613L131.479 124.58L134.286 123.552L143.992 119.994L144.017 119.986L144.655 119.751L144.731 119.875C144.754 119.912 144.776 119.949 144.797 119.986C145.428 121.117 145.942 122.31 146.33 123.545C146.984 125.564 147.522 127.618 147.942 129.698C147.961 129.789 147.977 129.871 147.991 129.945L147.998 129.967C148.004 130.002 148.008 130.025 148.01 130.031C148.234 130.963 148.078 132.1 147.667 133.227Z" fill="#2F2E41"/>
<path d="M148.077 126.708C148.046 126.576 148.007 126.443 147.966 126.314C147.64 125.334 147.26 124.373 146.828 123.435C146.344 122.368 145.763 121.224 145.071 119.986C144.736 119.387 144.377 118.763 143.991 118.116C143.798 117.792 143.598 117.461 143.39 117.124C143.382 117.109 143.373 117.094 143.363 117.079L143.303 116.981L133.7 118.266L130.123 118.744L129.91 120.526L129.858 120.968C129.856 120.968 129.856 120.968 129.858 120.97L129.715 122.173V122.175L129.524 123.764L129.507 123.762L124.2 123.074L118.731 122.366L115.793 121.986C115.113 121.897 114.421 121.945 113.759 122.126C113.096 122.307 112.477 122.618 111.936 123.041C111.372 123.479 110.9 124.024 110.548 124.646C110.197 125.268 109.973 125.953 109.889 126.663C109.871 126.806 109.858 126.954 109.852 127.1L107.081 133.667C105.422 137.595 104.366 141.751 103.948 145.994L101.915 152.491L102.205 152.518L106.512 152.918L107.649 153.025L110.154 149.369C110.439 148.952 110.71 148.523 110.963 148.083C111.379 147.366 111.748 146.623 112.069 145.858L117.487 132.965C117.906 133.037 118.321 133.106 118.731 133.171C120.63 133.479 122.453 133.73 124.2 133.924C129.881 134.558 134.8 134.608 139.179 134.07C140.409 133.92 141.597 133.723 142.745 133.479C143.166 133.39 143.581 133.295 143.991 133.193C144.088 133.171 144.182 133.148 144.277 133.123C145.125 132.905 145.905 132.476 146.545 131.878C147.185 131.28 147.665 130.531 147.941 129.699C148.27 128.735 148.317 127.697 148.077 126.708Z" fill="#2F2E41"/>
<path d="M103.356 159.662L100.332 158.213L99.8582 157.985L99.1006 159.845L93.8121 161.009C93.5506 161.066 93.3143 161.206 93.1378 161.407C92.9612 161.608 92.8535 161.861 92.8306 162.127C92.8077 162.394 92.8706 162.661 93.0103 162.89C93.1499 163.118 93.359 163.296 93.6068 163.397L98.7742 165.505L100.415 164.029L100.012 166.01L101.958 166.805L104.091 160.016L103.356 159.662Z" fill="#2F2E41"/>
<path d="M121.941 156.798L122.134 157.286H121.941V156.798Z" fill="#2F2E41"/>
<path d="M120.888 157.391L117.719 158.489L117.222 158.66L117.992 160.515L115.053 165.063C114.908 165.288 114.838 165.553 114.854 165.821C114.87 166.088 114.971 166.343 115.143 166.549C115.314 166.754 115.547 166.9 115.807 166.964C116.067 167.028 116.34 167.007 116.587 166.904L121.743 164.767L121.87 162.564L122.978 164.254L124.92 163.45L121.658 157.125L120.888 157.391Z" fill="#2F2E41"/>
<path d="M147.286 129.682C147.098 129.682 146.913 129.636 146.747 129.548L130.025 120.811L129.832 120.02L129.468 117.517L129.473 117.494L131.063 110.162C131.034 110.099 130.973 109.996 130.905 109.879C130.195 108.676 128.034 105.015 132.157 99.9746L139.397 91.5342L145.611 91.2668L145.681 91.3561C147.343 93.4415 148.463 95.905 148.943 98.5277C149.423 101.15 149.248 103.851 148.432 106.39L147.785 118.075L148.479 120.434C148.885 121.821 148.818 123.303 148.289 124.648L148.448 128.469C148.454 128.625 148.428 128.782 148.373 128.928C148.317 129.075 148.233 129.209 148.125 129.322C148.016 129.435 147.886 129.526 147.742 129.587C147.598 129.649 147.443 129.682 147.286 129.682L147.286 129.682Z" fill="#3F3D56"/>
<path d="M132.782 139.319C133.065 139.151 133.309 138.924 133.494 138.653C133.68 138.381 133.804 138.072 133.858 137.748C133.911 137.423 133.893 137.091 133.804 136.774C133.716 136.457 133.558 136.163 133.344 135.914L137.364 129L133.215 129.234L130.033 135.764C129.638 136.152 129.399 136.671 129.361 137.224C129.323 137.777 129.49 138.324 129.829 138.762C130.167 139.2 130.655 139.499 131.2 139.602C131.744 139.704 132.307 139.604 132.782 139.319L132.782 139.319Z" fill="#FFB7B7"/>
<path d="M134.404 134.236L130.689 131.342L137.44 118.261L134.91 101.602C134.785 100.779 134.843 99.938 135.08 99.1394C135.316 98.3409 135.726 97.6041 136.279 96.9816C136.832 96.359 137.516 95.8659 138.281 95.5372C139.046 95.2085 139.874 95.0523 140.707 95.0797C142.21 95.1309 143.632 95.7764 144.66 96.8746C145.688 97.9728 146.239 99.4339 146.191 100.937L145.566 119.906L134.404 134.236Z" fill="#3F3D56"/>
<path d="M135.412 88.027V81.8785C135.41 79.6934 136.277 77.5972 137.821 76.0512C139.365 74.5051 141.46 73.6357 143.645 73.6343C145.83 73.6329 147.926 74.4996 149.472 76.0437C151.019 77.5878 151.888 79.6828 151.889 81.8679V81.8785C153.341 84.9045 152.433 86.3431 151.889 88.027C151.889 88.3203 151.772 88.6014 151.565 88.8087C151.357 89.0161 151.076 89.1328 150.783 89.1333H136.518C136.225 89.1329 135.944 89.0163 135.736 88.8089C135.529 88.6015 135.412 88.3204 135.412 88.027Z" fill="#2F2E41"/>
<path d="M140.949 88.7337C144.355 88.7337 147.116 85.9726 147.116 82.5666C147.116 79.1605 144.355 76.3994 140.949 76.3994C137.543 76.3994 134.782 79.1605 134.782 82.5666C134.782 85.9726 137.543 88.7337 140.949 88.7337Z" fill="#FFB7B7"/>
<path d="M147.403 84.1834C147.347 84.1746 147.291 84.1628 147.236 84.154C146.274 83.9834 145.312 83.8157 144.353 83.6421L144.264 81.4681L143.102 83.4156C140.452 84.2952 137.972 83.798 135.639 82.7007C134.869 82.3354 134.123 81.9238 133.403 81.4681C133.599 80.2658 134.061 79.1224 134.756 78.1217C135.451 77.121 136.361 76.2883 137.419 75.6845C137.507 75.6344 137.592 75.5903 137.681 75.5462C137.681 75.5462 137.681 75.5461 137.682 75.546C137.682 75.5458 137.682 75.5456 137.683 75.5453C137.683 75.5451 137.683 75.5447 137.683 75.5444C137.683 75.544 137.683 75.5436 137.683 75.5432C137.833 75.4726 137.986 75.405 138.139 75.3432C139.337 74.8752 140.643 74.7566 141.905 75.0014C143.168 75.2462 144.335 75.8441 145.27 76.7259C147.153 78.5233 148 81.4916 147.403 84.1834Z" fill="#2F2E41"/>
</g>
<defs>
<clipPath id="clip0_69_1932">
<rect width="178.554" height="167" fill="white" transform="translate(0.722778)"/>
</clipPath>
</defs>
</svg>
