<svg width="228" height="167"  fill="none" xmlns="http://www.w3.org/2000/svg">
<g clip-path="url(#clip0_69_1837)">
<path d="M222.03 72.7821C222.094 71.811 219.816 71.337 219.919 70.4872C220.022 69.6404 222.32 69.8164 224.749 68.287C225.187 68.0112 227.947 66.2732 227.678 64.9691C227.168 62.4973 216.223 63.7589 215.157 60.1631C214.924 59.3739 215.141 58.267 214.496 55.7867C214.24 54.8 214.027 54.288 213.592 54.1263C212.975 53.897 212.45 54.5737 210.935 55.5733C208.664 57.0725 208.249 56.6037 206.619 57.9247C205.409 58.9054 205.002 59.6788 204.475 59.5229C203.73 59.3023 204.063 57.6111 203.209 57.1983C202.338 56.7771 200.819 57.9714 199.889 59.0071C198.142 60.9506 197.961 62.8984 197.38 64.6792C196.749 66.6146 195.352 69.2575 191.884 71.9792L160.228 95.0236C166.892 90.4102 185.527 78.0157 192.788 73.6396C194.884 72.3764 197.085 71.1466 199.489 71.7122C201.802 72.2568 204.024 74.3998 207.755 75.8215C208.19 75.9876 209.409 76.4343 209.958 75.9134C210.411 75.4827 209.994 74.783 210.411 74.3746C210.971 73.8267 212.177 74.6411 214.153 74.92C215.546 75.1167 216.614 74.9472 217.533 74.8014C217.81 74.7574 221.946 74.0747 222.03 72.7821L222.03 72.7821Z" fill="#F2F2F2"/>
<path d="M168.543 59.6922C168.085 59.3809 167.195 60.3622 166.808 60.0662C166.422 59.7713 167.171 58.6943 167.122 57.0608C167.113 56.7663 167.056 54.9099 166.338 54.6658C164.978 54.203 162.439 59.9393 160.367 59.4246C159.912 59.3117 159.432 58.8857 158.028 58.4865C157.47 58.3277 157.157 58.2845 156.953 58.4513C156.662 58.688 156.843 59.1408 156.896 60.1727C156.977 61.7202 156.627 61.7887 156.805 62.9699C156.937 63.8468 157.199 64.2696 156.971 64.4832C156.647 64.7854 155.913 64.134 155.465 64.4339C155.007 64.7399 155.154 65.83 155.394 66.5856C155.844 68.0036 156.748 68.6545 157.454 69.4533C158.222 70.3214 159.116 71.7701 159.451 74.2575L161.627 96.4444C161.285 91.8424 160.579 79.1192 160.527 74.2927C160.512 72.8994 160.543 71.4641 161.514 70.4478C162.449 69.4692 164.142 68.9969 165.916 67.5762C166.123 67.4102 166.694 66.941 166.597 66.5214C166.516 66.1745 166.052 66.1775 165.972 65.8548C165.865 65.4218 166.613 65.065 167.32 64.1756C167.818 63.5484 168.043 62.9753 168.237 62.4824C168.295 62.3338 169.153 60.1066 168.543 59.6922L168.543 59.6922V59.6922Z" fill="#F2F2F2"/>
<path d="M176.26 67.9849L177.668 65.3379L177.921 65.2377C179.094 64.7747 179.967 64.1364 180.518 63.3399C180.605 63.2133 180.686 63.0822 180.769 62.9488C181.096 62.4197 181.503 61.762 182.345 61.2465C182.815 60.9599 183.995 60.3593 184.701 61.017C184.892 61.1918 184.986 61.3989 185.029 61.5962C185.067 61.5799 185.105 61.564 185.145 61.5466C185.646 61.3405 185.95 61.3132 186.243 61.2869C186.468 61.2666 186.7 61.246 187.131 61.1157C187.32 61.0586 187.476 61.0015 187.607 60.9536C188.005 60.8094 188.503 60.6532 188.967 60.9802C189.452 61.3471 189.431 61.941 189.417 62.3343C189.392 63.036 189.291 63.4849 189.224 63.7826C189.2 63.8912 189.172 64.0138 189.172 64.0569C189.171 64.4048 190.635 65.0816 191.184 65.3395C192.422 65.9149 193.492 66.4128 193.409 67.3843C193.349 68.0795 192.685 68.5976 191.379 68.964C190.972 69.0778 190.595 69.1178 190.275 69.1321C190.379 69.3565 190.425 69.624 190.317 69.9192C190.058 70.6175 189.137 70.8638 187.578 70.6539C187.19 70.6028 186.669 70.532 186.062 70.2539C185.776 70.1226 185.539 69.9755 185.337 69.8465C185.255 69.9576 185.144 70.0628 184.988 70.1422C184.528 70.3767 183.982 70.2645 183.373 69.7844C182.695 69.2663 182.209 68.7358 181.779 68.2687C181.403 67.8613 181.078 67.5117 180.763 67.3254C180.173 66.9875 179.436 67.1399 178.532 67.3741L176.26 67.9849L176.26 67.9849Z" fill="#F2F2F2"/>
<path d="M187.561 54.2227L184.644 53.5319L184.483 53.3121C183.737 52.2954 182.899 51.6127 181.989 51.282C181.844 51.2294 181.697 51.1842 181.546 51.1381C180.952 50.9555 180.212 50.7288 179.5 50.0457C179.104 49.6637 178.224 48.6742 178.681 47.8248C178.801 47.5952 178.978 47.4521 179.158 47.3599C179.132 47.3279 179.107 47.2953 179.08 47.2603C178.754 46.8277 178.65 46.5408 178.551 46.2643C178.474 46.0519 178.395 45.8326 178.16 45.4487C178.057 45.2803 177.962 45.144 177.882 45.0291C177.642 44.6808 177.364 44.2391 177.563 43.7065C177.795 43.1447 178.375 43.0147 178.759 42.9284C179.444 42.7742 179.903 42.7578 180.208 42.7471C180.32 42.7434 180.445 42.7387 180.487 42.7285C180.824 42.6414 181.107 41.0533 181.217 40.4562C181.46 39.1134 181.67 37.9515 182.631 37.7861C183.318 37.6672 183.988 38.1784 184.673 39.3487C184.887 39.7133 185.021 40.0678 185.116 40.3739C185.307 40.2169 185.554 40.1036 185.867 40.134C186.608 40.207 187.08 41.0356 187.272 42.597C187.321 42.9851 187.385 43.5069 187.27 44.1649C187.215 44.4747 187.133 44.7419 187.059 44.9691C187.188 45.0205 187.318 45.1014 187.434 45.2326C187.778 45.6178 187.808 46.1741 187.498 46.8853C187.168 47.6721 186.779 48.2775 186.436 48.8119C186.137 49.2787 185.881 49.6815 185.781 50.0338C185.604 50.6901 185.939 51.3648 186.394 52.1791L187.561 54.2228L187.561 54.2228V54.2227Z" fill="#F2F2F2"/>
<path d="M191.244 46.1053L192.652 43.4583L192.906 43.3581C194.078 42.8951 194.951 42.2567 195.502 41.4603C195.59 41.3337 195.671 41.2026 195.753 41.0691C196.081 40.5401 196.488 39.8823 197.329 39.3669C197.799 39.0803 198.979 38.4797 199.685 39.1374C199.876 39.3122 199.97 39.5193 200.014 39.7165C200.051 39.7003 200.089 39.6844 200.13 39.6669C200.631 39.4609 200.935 39.4336 201.227 39.4073C201.452 39.387 201.684 39.3663 202.115 39.236C202.304 39.1789 202.46 39.1218 202.592 39.074C202.989 38.9297 203.487 38.7735 203.952 39.1006C204.436 39.4674 204.415 40.0614 204.401 40.4547C204.377 41.1564 204.276 41.6052 204.209 41.9029C204.184 42.0116 204.157 42.1341 204.156 42.1772C204.155 42.5252 205.619 43.202 206.169 43.4599C207.406 44.0353 208.477 44.5332 208.393 45.5047C208.334 46.1999 207.669 46.718 206.363 47.0843C205.957 47.1981 205.58 47.2381 205.259 47.2525C205.363 47.4769 205.41 47.7444 205.301 48.0396C205.043 48.7379 204.121 48.9842 202.562 48.7743C202.175 48.7231 201.654 48.6524 201.046 48.3742C200.76 48.2429 200.523 48.0959 200.322 47.9669C200.24 48.078 200.128 48.1831 199.972 48.2626C199.512 48.4971 198.967 48.3849 198.357 47.9047C197.68 47.3866 197.193 46.8562 196.763 46.3891C196.387 45.9817 196.063 45.632 195.747 45.4457C195.157 45.1079 194.42 45.2603 193.517 45.4944L191.244 46.1053V46.1053H191.244Z" fill="#F2F2F2"/>
<path d="M161.078 95.5472L160.784 94.8714L161.067 94.1914L160.784 94.8714L160.137 94.5289C160.165 94.4666 160.22 94.316 160.309 94.0817C160.793 92.7984 162.264 88.8919 165.188 83.1555C167.229 79.1513 169.549 75.1856 172.082 71.3667C174.62 67.5418 176.762 64.7978 178.484 62.5922C179.783 60.9288 181.048 59.3643 182.281 57.8409C185.575 53.7701 188.685 49.9244 191.528 45.2554C192.163 44.2134 193.484 42.0438 193.787 38.9795C193.962 37.2022 193.771 35.3865 193.216 33.5837L194.625 33.1504C195.236 35.1418 195.447 37.1522 195.253 39.1256C194.917 42.5231 193.478 44.8871 192.786 46.023C189.893 50.7745 186.752 54.6568 183.426 58.7667C182.198 60.285 180.938 61.8423 179.645 63.4991C177.939 65.6842 175.815 68.4044 173.311 72.1802C170.807 75.9532 168.516 79.8705 166.5 83.8241C163.613 89.4883 162.164 93.3368 161.688 94.601C161.433 95.2759 161.38 95.4173 161.078 95.5472V95.5472V95.5472Z" fill="#F2F2F2"/>
<path d="M189.664 33.9881C189.614 33.954 189.565 33.9182 189.516 33.8797C188.519 33.115 187.985 31.8388 187.928 30.087C187.902 29.2638 188.125 28.4976 188.57 26.9695C188.638 26.7337 188.998 25.5466 189.73 24.0756C190.208 23.1142 190.474 22.758 190.87 22.553C191.31 22.3243 191.795 22.2864 192.262 22.3573C192.327 22.2304 192.421 22.1191 192.555 22.0314C193.11 21.6664 193.615 22.1101 193.891 22.3462C194.029 22.4684 194.2 22.6222 194.41 22.7506C194.74 22.9538 194.976 22.9764 195.334 23.012C195.676 23.0458 196.102 23.0878 196.624 23.3083C197.658 23.739 198.241 24.5145 198.433 24.77C199.447 26.1084 199.395 27.5743 199.335 29.2716C199.322 29.6115 199.244 30.8272 198.771 32.244C198.43 33.2662 198.136 33.6224 197.869 33.8545C197.321 34.3326 196.741 34.4231 195.342 34.5424C193.879 34.669 193.146 34.7317 192.582 34.6891C191.271 34.5881 190.448 34.5247 189.664 33.9881L189.664 33.9881V33.9881Z" fill="#F2F2F2"/>
<path d="M183.856 0H101.27C98.2405 0 95.777 2.46364 95.777 5.49338V90.6842C95.777 93.714 98.2405 96.1776 101.27 96.1776H183.856C186.886 96.1776 189.35 93.714 189.35 90.6842V5.49338C189.35 2.46364 186.886 0 183.856 0ZM188.772 90.6842C188.772 93.3991 186.571 95.6 183.856 95.6H101.27C98.5553 95.6 96.3546 93.3991 96.3546 90.6842V5.49338C96.3546 2.77849 98.5553 0.577643 101.27 0.577643H145.016C169.182 0.577643 188.772 20.1691 188.772 44.3364V90.6842Z" fill="#3F3D56"/>
<path d="M94.029 64.0274C91.1344 64.8099 89.1918 66.9377 89.69 68.7799C90.1882 70.6221 92.9383 71.4807 95.8338 70.6976C96.9948 70.4006 98.0677 69.83 98.9629 69.0333L111.186 65.5632L109.435 59.8618L97.5714 63.888C96.3964 63.6509 95.1817 63.6987 94.029 64.0274Z" fill="#FFB6B6"/>
<path d="M145.249 46.9223C145.249 46.9223 148.7 51.9848 140.923 55.8038C133.146 59.6227 118.77 65.0733 118.77 65.0733L98.9199 69.6722L95.9224 63.1001L119.476 56.6824L138.669 45.9707L145.249 46.9223H145.249Z" fill="#3F3D56"/>
<path d="M142.94 33.4476C142.852 35.8473 144.579 38.6959 146.406 38.7544C148.603 38.8248 158.99 39.5646 159.324 38.7031C161.642 32.7213 150.724 20.3126 148.263 19.9547C146.94 19.7623 145.356 21.6614 144.747 23.2291C143.894 25.4261 145.153 26.4621 144.443 29.4219C143.901 31.6789 143.002 31.77 142.94 33.4476Z" fill="#2F2E41"/>
<path d="M124.86 128.046L117.57 129.717L124.895 151.454L129.835 150.322L124.86 128.046Z" fill="#FFB6B6"/>
<path d="M122.255 144.675L125.075 145.089L125.509 146.599C125.509 146.599 125.603 144.678 128.717 143.361L129.527 144.713C129.527 144.713 131.194 145.786 131.733 148.445L132.929 155.637L130.481 156.286L128.684 151.561C128.684 151.561 127.696 150.658 126.124 156.77C126.124 156.77 125.487 158.825 119.711 158.587C118.917 158.554 118.219 158.024 118.007 157.258C117.89 156.836 117.942 156.399 118.429 156.106C119.67 155.361 121.113 155.431 121.67 154.106C122.227 152.781 122.255 144.675 122.255 144.675Z" fill="#2F2E41"/>
<path d="M140.698 137.929L134.188 137.768L135.099 160.657L140.166 160.747L140.698 137.929Z" fill="#FFB6B6"/>
<path d="M134.168 153.442L136.805 154.522L136.864 156.093C136.864 156.093 137.417 154.251 140.757 153.722L141.217 155.229C141.217 155.229 142.577 156.671 142.46 159.382L141.89 166.65L139.358 166.692L138.751 161.673C138.751 161.673 138.009 160.558 135.012 166.113C135.012 166.113 133.9 167.954 128.351 166.333C127.588 166.11 127.038 165.428 127.017 164.633C127.005 164.195 127.16 163.783 127.704 163.616C129.088 163.192 130.472 163.607 131.331 162.455C132.19 161.303 134.168 153.442 134.168 153.442Z" fill="#2F2E41"/>
<path d="M154.131 112.928L119.702 110.264L129.391 70.5421L152.572 67.2019L154.131 112.928Z" fill="#2F2E41"/>
<path d="M149.383 39.9131L156.637 36.0481L162.495 42.9652L150.724 80.6967L129.191 71.1615L145.546 43.1993L149.383 39.9131Z" fill="#0661B0"/>
<path d="M150.302 73.8843C150.302 73.8843 152.612 85.7963 145.459 91.9876L143.27 98.9495L140.905 111.8L141.119 144.989L132.455 144.122L128.989 112.353L128.948 96.5415L116.157 107.496L129.544 133.79L118.636 138.566L105.314 106.88C104.388 104.95 104.635 102.662 105.951 100.974L129.191 71.1616L150.302 73.8843Z" fill="#2F2E41"/>
<path d="M159.284 39.1731L145.061 52.4432C141.694 79.7598 143.532 104.843 153.217 126.558L177.118 115.48C157.41 109.502 159.342 76.6785 163.167 41.5089L159.284 39.1731Z" fill="#3F3D56"/>
<path d="M147.018 43.243L149.206 39.8574L137.104 46.9725L127.535 73.4925L145.187 51.4622L147.018 43.243Z" fill="#3F3D56"/>
<path d="M177.289 93.1264C178.123 96.0067 180.285 97.9111 182.118 97.38C183.951 96.8488 184.76 94.0837 183.925 91.2024C183.608 90.0469 183.018 88.9843 182.205 88.1035L178.517 75.9441L172.849 77.7965L177.086 89.5868C176.87 90.766 176.94 91.9797 177.289 93.1264Z" fill="#FFB6B6"/>
<path d="M158.731 41.7922C158.731 41.7922 163.692 38.1971 167.733 45.8618C171.773 53.5265 177.634 67.7409 177.634 67.7409L182.802 87.4514L176.319 90.6368L169.227 67.276L157.969 48.3976L158.731 41.7922Z" fill="#3F3D56"/>
<path d="M152.832 35.737C157.282 35.737 160.889 32.1299 160.889 27.6802C160.889 23.2305 157.282 19.6233 152.832 19.6233C148.383 19.6233 144.776 23.2305 144.776 27.6802C144.776 32.1299 148.383 35.737 152.832 35.737Z" fill="#FFB6B6"/>
<path d="M152.859 24.5368C152.405 24.4921 152.172 24.9716 150.44 25.6407C149.827 25.8777 149.513 25.9967 149.152 26.0199C148.057 26.0903 147.205 25.4852 146.636 25.0808C145.711 24.4234 145.116 24 144.999 23.3231C144.847 22.4397 145.847 21.4528 147.854 19.5153C148.836 18.5664 149.435 17.9932 150.396 17.311C152.009 16.1668 152.815 15.5947 153.945 15.4825C155.442 15.3338 156.58 16.0481 158.222 17.0789C158.666 17.3574 159.305 17.4913 159.983 17.5424C162.203 17.7094 164.106 19.1891 164.71 21.3318C164.756 21.4955 164.795 21.6437 164.824 21.7706C166.015 26.9734 165.683 32.3848 164.052 37.467C164.008 37.6038 163.971 37.7312 163.943 37.8473C163.185 40.9424 152.779 42.1489 151.562 39.5323C150.795 37.8847 154.377 36.2361 154.912 31.3232C155.285 27.903 153.99 24.6484 152.859 24.5368V24.5368Z" fill="#2F2E41"/>
<path d="M121.48 26.356H34.1888V26.8034H121.48V26.356Z" fill="#E6E6E6"/>
<path d="M109.157 19.8131H46.5123C45.5254 19.8131 44.7224 19.0101 44.7224 18.0231C44.7224 17.0361 45.5254 16.2332 46.5123 16.2332H109.157C110.144 16.2332 110.947 17.0361 110.947 18.0231C110.947 19.0101 110.144 19.8131 109.157 19.8131Z" fill="#E6E6E6"/>
<path d="M34.3824 29.9168C36.4559 29.9168 38.1368 28.2358 38.1368 26.1622C38.1368 24.0885 36.4559 22.4075 34.3824 22.4075C32.3089 22.4075 30.6279 24.0885 30.6279 26.1622C30.6279 28.2358 32.3089 29.9168 34.3824 29.9168Z" fill="#E6E6E6"/>
<path d="M45.9345 21.8299C48.008 21.8299 49.689 20.1489 49.689 18.0752C49.689 16.0016 48.008 14.3206 45.9345 14.3206C43.861 14.3206 42.1801 16.0016 42.1801 18.0752C42.1801 20.1489 43.861 21.8299 45.9345 21.8299Z" fill="#E6E6E6"/>
<path d="M92.0225 68.2351H4.73083V68.6826H92.0225V68.2351Z" fill="#3F3D56"/>
<path d="M79.6991 61.6922H17.0543C16.0673 61.6922 15.2644 60.8892 15.2644 59.9023C15.2644 58.9153 16.0673 58.1123 17.0543 58.1123H79.6991C80.686 58.1123 81.489 58.9153 81.489 59.9023C81.489 60.8892 80.686 61.6922 79.6991 61.6922Z" fill="#0661B0"/>
<path d="M4.05792 71.796C6.13145 71.796 7.81238 70.115 7.81238 68.0413C7.81238 65.9676 6.13145 64.2866 4.05792 64.2866C1.98439 64.2866 0.303467 65.9676 0.303467 68.0413C0.303467 70.115 1.98439 71.796 4.05792 71.796Z" fill="#0661B0"/>
<path d="M15.61 63.7091C17.6836 63.7091 19.3645 62.028 19.3645 59.9544C19.3645 57.8807 17.6836 56.1997 15.61 56.1997C13.5365 56.1997 11.8556 57.8807 11.8556 59.9544C11.8556 62.028 13.5365 63.7091 15.61 63.7091Z" fill="#0661B0"/>
<path d="M102.419 114.447H15.1278V114.894H102.419V114.447Z" fill="#E6E6E6"/>
<path d="M90.0961 107.904H27.4512C26.4643 107.904 25.6614 107.101 25.6614 106.114C25.6614 105.127 26.4643 104.324 27.4512 104.324H90.0961C91.083 104.324 91.886 105.127 91.886 106.114C91.886 107.101 91.083 107.904 90.0961 107.904Z" fill="#E6E6E6"/>
<path d="M25.7182 109.632C27.7917 109.632 29.4727 107.951 29.4727 105.877C29.4727 103.804 27.7917 102.123 25.7182 102.123C23.6447 102.123 21.9637 103.804 21.9637 105.877C21.9637 107.951 23.6447 109.632 25.7182 109.632Z" fill="#E6E6E6"/>
<path d="M14.4549 118.296C16.5284 118.296 18.2093 116.615 18.2093 114.542C18.2093 112.468 16.5284 110.787 14.4549 110.787C12.3814 110.787 10.7004 112.468 10.7004 114.542C10.7004 116.615 12.3814 118.296 14.4549 118.296Z" fill="#E6E6E6"/>
</g>
<defs>
<clipPath id="clip0_69_1837">
<rect width="227.393" height="167" fill="white" transform="translate(0.303467)"/>
</clipPath>
</defs>
</svg>
